<?xml version="1.0" encoding="utf-8"?>
<!-- Generator: Adobe Illustrator 20.1.0, SVG Export Plug-In . SVG Version: 6.00 Build 0)  -->
<svg version="1.1" id="Layer_1" xmlns="http://www.w3.org/2000/svg" xmlns:xlink="http://www.w3.org/1999/xlink" x="0px" y="0px"
	 viewBox="0 0 91.8 89.6" style="enable-background:new 0 0 91.8 89.6;" xml:space="preserve">
<style type="text/css">
	.st0{fill:#F4F3F1;}
	.st1{clip-path:url(#SVGID_2_);}
	.st2{fill:#EBEAEA;}
	.st3{fill:#9D9C9A;}
</style>
<title>agua</title>
<g id="Layer_2">
	<g id="Layer_1-2">
		<g id="Capa_2">
			<circle class="st0" cx="44.8" cy="44.8" r="44.8"/>
		</g>
		<g id="Capa_1">
			<g>
				<defs>
					<circle id="SVGID_1_" cx="44.8" cy="44.8" r="44.8"/>
				</defs>
				<clipPath id="SVGID_2_">
					<use xlink:href="#SVGID_1_"  style="overflow:visible;"/>
				</clipPath>
				<g class="st1">
					<path class="st2" d="M36.5,61.9L69,86.5l12.3-10.4l5.6-12.2l1.8-3l3.1-4.8L47.9,24l-0.5,4.5c0,0,0.9,2.9-3.3,7.5
						c-5.6,5.9-8.3,6.7-8.5,9.1c-0.1,1.3-1.9,3.7-1.6,6C34.5,54.8,35.3,58.4,36.5,61.9z"/>
				</g>
			</g>
			<path id="MainObject" class="st3" d="M55.4,35.1c-1-1.6-2-3.1-3.1-4.6c-0.7-1-1.3-1.9-2-2.9l-0.5-0.8c-0.6-0.8-1.1-1.6-1.7-2.4
				c-0.3-0.5-0.7-0.9-1.1-1.3c-0.2-0.2-0.5-0.2-0.8-0.2l0,0c-0.3,0-0.6,0.1-0.8,0.3c-0.3,0.4-0.6,0.8-0.9,1.2
				c-0.3,0.5-0.7,1.1-1,1.6l-0.4,0.6l-0.3,0.5C42.2,28,41.6,29,41,29.9c-1.1,1.8-2,3.3-2.8,4.6c-1.4,2.3-2.6,4.7-3.7,7.2
				c-2,4.8-2.7,8.8-2,12.5c0.4,2.5,1.5,4.9,3.2,6.9l0,0c1.3,1.2,2.8,2.4,4.4,3.3c2.1,1.2,4.4,1.8,6.8,1.9c1.1,0,2.2-0.2,3.3-0.5
				c0.8-0.2,1.6-0.6,2.4-1c0.8-0.5,1.6-1,2.3-1.7c2.2-1.8,4-4.1,5.1-6.8c0.3-0.7,0.5-1.5,0.6-2.3c0.1-0.6,0.2-1.2,0.2-1.8
				c0.4-3.3-0.2-6.7-1.5-9.7C58.2,39.9,56.9,37.4,55.4,35.1z M44.7,63.5c-6.5-1-11-7.1-10-13.6c0.2-1.1,0.7-4.2,0.9-3.1
				c3.1,14,15.4,16,15.4,16C49,63.5,46.8,63.8,44.7,63.5z"/>
		</g>
	</g>
</g>
</svg>
