<svg xmlns="http://www.w3.org/2000/svg" xmlns:xlink="http://www.w3.org/1999/xlink" viewBox="0 0 91.8 89.6"><defs><style>.cls-1{fill:none;}.cls-2{fill:#f4f3f1;}.cls-3{clip-path:url(#clip-path);}.cls-4{fill:#ebeaea;}.cls-5{fill:#9d9c9a;}</style><clipPath id="clip-path"><circle class="cls-1" cx="44.8" cy="44.8" r="44.8"/></clipPath></defs><title>agua</title><g id="Layer_2" data-name="Layer 2"><g id="Layer_1-2" data-name="Layer 1"><g id="Capa_2" data-name="Capa 2"><circle class="cls-2" cx="44.8" cy="44.8" r="44.8"/></g><g id="Capa_1" data-name="Capa 1"><g class="cls-3"><path class="cls-4" d="M36.5,61.9,69,86.5,81.3,76.1l5.6-12.2,1.8-3,3.1-4.8L47.9,24l-.5,4.5s.9,2.9-3.3,7.5c-5.6,5.9-8.3,6.7-8.5,9.1-.1,1.3-1.9,3.7-1.6,6A59.19,59.19,0,0,0,36.5,61.9Z"/></g><path class="cls-5" d="M55.4,35.1a53.34,53.34,0,0,0-3.1-4.6c-.7-1-1.3-1.9-2-2.9l-.5-.8c-.6-.8-1.1-1.6-1.7-2.4A5,5,0,0,0,47,23.1a1.08,1.08,0,0,0-.8-.2h0a1.14,1.14,0,0,0-.8.3,6.23,6.23,0,0,0-.9,1.2c-.3.5-.7,1.1-1,1.6l-.4.6-.3.5c-.6.9-1.2,1.9-1.8,2.8-1.1,1.8-2,3.3-2.8,4.6a55.23,55.23,0,0,0-3.7,7.2c-2,4.8-2.7,8.8-2,12.5a14.56,14.56,0,0,0,3.2,6.9h0a26.59,26.59,0,0,0,4.4,3.3,14.9,14.9,0,0,0,6.8,1.9,12.57,12.57,0,0,0,3.3-.5,12.23,12.23,0,0,0,2.4-1,12.42,12.42,0,0,0,2.3-1.7A17.2,17.2,0,0,0,60,56.3a7.75,7.75,0,0,0,.6-2.3,11,11,0,0,0,.2-1.8,19.12,19.12,0,0,0-1.5-9.7,44.93,44.93,0,0,0-3.9-7.4ZM44.7,63.5a12,12,0,0,1-10-13.6c.2-1.1.7-4.2.9-3.1,3.1,14,15.4,16,15.4,16a13.52,13.52,0,0,1-6.3.7Z"/></g></g></g></svg>