<svg xmlns="http://www.w3.org/2000/svg" xmlns:xlink="http://www.w3.org/1999/xlink" viewBox="0 0 103.5 99.5"><defs><style>.cls-1{fill:none;}.cls-2{fill:#f4f3f1;}.cls-3{clip-path:url(#clip-path);}.cls-4{fill:#ebeaea;}.cls-5{fill:#9d9c9a;}</style><clipPath id="clip-path"><circle class="cls-1" cx="44.8" cy="44.8" r="44.8"/></clipPath></defs><title>arquitectura</title><g id="Layer_2" data-name="Layer 2"><g id="Layer_1-2" data-name="Layer 1"><g id="Capa_2" data-name="Capa 2"><circle class="cls-2" cx="44.8" cy="44.8" r="44.8"/></g><g id="Capa_1" data-name="Capa 1"><g class="cls-3"><path class="cls-4" d="M77.5,99.5l13.6-6.1L99.3,81l1.5-7.4,2.3-4.6.4-5.7-10-11.7L67.9,31.8s-16.7,3.4-24.3,4.8c-6.8,5.7-9.6,7.2-10.9,12.7-.3,1.4-2.5,11.5-2.5,11.5C33.9,64.1,77.5,99.5,77.5,99.5Z"/></g><path class="cls-5" d="M67.8,31.9s-5.4-6.2-15.7-4.8c-3,.4-6.8,3.4-7.7,6.1a18.66,18.66,0,0,0-5.3,2.6,8.82,8.82,0,0,0,1-2.6,7.8,7.8,0,0,0,4.1-5.5c.8-7.2-3.7-10.8-3.7-10.8s-5.1,2.6-5.8,9.8c-.3,2.5,1.6,4.8,2.9,6.1a25.06,25.06,0,0,0,2.5-9.1c1.2,5.5-3.2,13.7-3.9,15.1a.31.31,0,0,0-.1.2h0a.31.31,0,0,0,.2-.1c1.6-.9,13.4-7.6,21.5-6.1a39.08,39.08,0,0,0-12.9,4c1.9,1.8,5.4,4.4,8.9,3.9C64.3,39.2,67.8,31.9,67.8,31.9Z"/><g id="_Group_" data-name="&lt;Group&gt;"><path id="_Compound_Path_" data-name="&lt;Compound Path&gt;" class="cls-5" d="M43.5,36.6,30.1,46.1V60.8h4.3V49h5.8V60.8H56.9V46.1ZM53.5,56h-9V49h9Z"/></g></g></g></g></svg>