<?xml version="1.0" encoding="utf-8"?>
<!-- Generator: Adobe Illustrator 20.1.0, SVG Export Plug-In . SVG Version: 6.00 Build 0)  -->
<svg version="1.1" id="Layer_1" xmlns="http://www.w3.org/2000/svg" xmlns:xlink="http://www.w3.org/1999/xlink" x="0px" y="0px"
	 viewBox="0 0 103.5 99.5" style="enable-background:new 0 0 103.5 99.5;" xml:space="preserve">
<style type="text/css">
	.st0{fill:#F4F3F1;}
	.st1{clip-path:url(#SVGID_2_);}
	.st2{fill:#EBEAEA;}
	.st3{fill:#9D9C9A;}
</style>
<title>arquitectura</title>
<g id="Layer_2">
	<g id="Layer_1-2">
		<g id="Capa_2">
			<circle class="st0" cx="44.8" cy="44.8" r="44.8"/>
		</g>
		<g id="Capa_1">
			<g>
				<defs>
					<circle id="SVGID_1_" cx="44.8" cy="44.8" r="44.8"/>
				</defs>
				<clipPath id="SVGID_2_">
					<use xlink:href="#SVGID_1_"  style="overflow:visible;"/>
				</clipPath>
				<g class="st1">
					<path class="st2" d="M77.5,99.5l13.6-6.1L99.3,81l1.5-7.4l2.3-4.6l0.4-5.7l-10-11.7L67.9,31.8c0,0-16.7,3.4-24.3,4.8
						c-6.8,5.7-9.6,7.2-10.9,12.7c-0.3,1.4-2.5,11.5-2.5,11.5C33.9,64.1,77.5,99.5,77.5,99.5z"/>
				</g>
			</g>
			<g id="MainObject">
				<path class="st3" d="M67.8,31.9c0,0-5.4-6.2-15.7-4.8c-3,0.4-6.8,3.4-7.7,6.1c-1.9,0.6-3.7,1.5-5.3,2.6c0.5-0.8,0.8-1.7,1-2.6
					c2.1-1.1,3.7-3.1,4.1-5.5c0.8-7.2-3.7-10.8-3.7-10.8s-5.1,2.6-5.8,9.8c-0.3,2.5,1.6,4.8,2.9,6.1c1.4-2.8,2.3-5.9,2.5-9.1
					c1.2,5.5-3.2,13.7-3.9,15.1c-0.1,0.1-0.1,0.1-0.1,0.2l0,0c0.1,0,0.1,0,0.2-0.1c1.6-0.9,13.4-7.6,21.5-6.1
					c-4.5,0.6-8.9,1.9-12.9,4c1.9,1.8,5.4,4.4,8.9,3.9C64.3,39.2,67.8,31.9,67.8,31.9z"/>
				<g id="_Group_">
					<path id="_Compound_Path_" class="st3" d="M43.5,36.6l-13.4,9.5v14.7h4.3V49h5.8v11.8h16.7V46.1L43.5,36.6z M53.5,56h-9v-7h9
						V56z"/>
				</g>
			</g>
		</g>
	</g>
</g>
</svg>
