<svg xmlns="http://www.w3.org/2000/svg" xmlns:xlink="http://www.w3.org/1999/xlink" viewBox="0 0 95.5 92.5"><defs><style>.cls-1{fill:none;}.cls-2{fill:#f4f3f1;}.cls-3{clip-path:url(#clip-path);}.cls-4{fill:#ebeaea;}.cls-5{fill:#9d9c9a;}</style><clipPath id="clip-path"><circle class="cls-1" cx="44.8" cy="44.8" r="44.8"/></clipPath></defs><title>biodiversidad</title><g id="Layer_2" data-name="Layer 2"><g id="Layer_1-2" data-name="Layer 1"><g id="Capa_2" data-name="Capa 2"><circle class="cls-2" cx="44.8" cy="44.8" r="44.8"/></g><g id="Capa_1" data-name="Capa 1"><g class="cls-3"><path class="cls-4" d="M14,59.5l43.6,33,29.8-12,3-6.4,2.9-5.7,2.2-5.3-.2-10.2-2.8-5.1L62.2,17.5S45,30.4,43.3,31.9c-3.1,3-.9,14.1-4.7,11.5,1.1,2.6-14.7,4.3-17.4,5.7A118.12,118.12,0,0,1,14,59.5Z"/></g><path class="cls-5" d="M62.2,17.5A20.77,20.77,0,0,1,61.1,21a19.8,19.8,0,0,1-11,9.7,3.73,3.73,0,0,0-2.7,3.4,20.88,20.88,0,0,0,1.1,8.2c.4,1.4.8,2.7,1.2,4-3.7-1-7.5-2-11.1-3,.3-2.5.6-5.1.8-7.7a7.49,7.49,0,0,0-.2-2.1,3.68,3.68,0,0,0-2.6-2.9,20.14,20.14,0,0,1-10.9-9.4,38.16,38.16,0,0,1-1.3-3.6c.1-.1.2-.1.3-.2a16.29,16.29,0,0,0,1.7,1.1c2.3,1.3,4.8,1.5,7.3,1.8a31.48,31.48,0,0,1,4.2.9,8.14,8.14,0,0,1,4,2.8l1.2,1.5.3-.3c2.1-3.5,5.5-4.6,9.3-5a33.21,33.21,0,0,0,6.1-1.3C60,19,60.9,18.3,62.2,17.5Z"/><path class="cls-5" d="M69.1,50.7a20.88,20.88,0,0,1-5.8,3.5c-4.5,1.8-9.1,1.3-13.8-.2-3.8-1.2-7.7-2.6-11.5-3.6a19.6,19.6,0,0,0-13.9,1.2,34.86,34.86,0,0,0-9.3,7.1,3.11,3.11,0,0,1-.9.7c.1-.2.1-.5.2-.7a31.79,31.79,0,0,1,7-9.7,17.18,17.18,0,0,1,8.8-4.2,22.28,22.28,0,0,1,10.2,1c4.8,1.5,9.5,3.1,14.3,4.6,3.8,1.2,7.6,2,11.5,1.1A10,10,0,0,0,69.1,50.7Z"/><path class="cls-5" d="M65,39.7a9.59,9.59,0,0,1-2.3,1.8,7.76,7.76,0,0,1,1.6-2.4.1.1,0,0,0-.1-.1,6.47,6.47,0,0,0-1.3.4c-1,.5-2,1.2-3,1.7a15.1,15.1,0,0,1-1.8.9,3.6,3.6,0,0,1-2.7,0c-.5-.2-.6-.6-.6-1.1a10.36,10.36,0,0,1,1.1-3.8,6.38,6.38,0,0,1,.8-1.4c1.1-1.5,1.8-1.6,3.4-1.3a18,18,0,0,1,1.9.5c-.5-.7-1-1.3-1.5-1.9-.2-.3-.5-.6-.7-.9a1.06,1.06,0,0,1,0-1.4,5,5,0,0,0,.8-1.2c.4-.7.7-1.5,1.1-2.2a10.41,10.41,0,0,1,1-1.8,1,1,0,0,1,1.8,0,13.89,13.89,0,0,1,1.8,3.1,9.5,9.5,0,0,1-.8,8.8c-.1.3-.3.5-.4.8l.1.1.5-.5,1.2-1.5c.1-.1.3,0,.5,0a.75.75,0,0,1-.1.5,18.48,18.48,0,0,0-1.4,1.4c-.1.1-.1.2-.1.4a.76.76,0,0,1,.4-.2,11.25,11.25,0,0,1,5.2-2.1,10.77,10.77,0,0,1,5.8,1.1,6.38,6.38,0,0,1,1.4.8,1.09,1.09,0,0,1,.1,1.7A4.52,4.52,0,0,1,77,41a8.06,8.06,0,0,0-2.6,1.8c-.9,1-1.3,1-2.5.3-.7-.4-1.4-.9-2.2-1.4a.35.35,0,0,1-.2-.1c.2.8.5,1.6.7,2.5a2.1,2.1,0,0,1-.8,2.2A10.08,10.08,0,0,1,64,49.1c-.8.2-1.1-.1-1.4-.9a5.09,5.09,0,0,1,.6-4c.6-1.2,1.1-2.4,1.6-3.7C65,40.4,65,40,65,39.7Z"/></g></g></g></svg>