<?xml version="1.0" encoding="utf-8"?>
<!-- Generator: Adobe Illustrator 20.1.0, SVG Export Plug-In . SVG Version: 6.00 Build 0)  -->
<svg version="1.1" id="Layer_1" xmlns="http://www.w3.org/2000/svg" xmlns:xlink="http://www.w3.org/1999/xlink" x="0px" y="0px"
	 viewBox="0 0 95.5 92.5" style="enable-background:new 0 0 95.5 92.5;" xml:space="preserve">
<style type="text/css">
	.st0{fill:#F4F3F1;}
	.st1{clip-path:url(#SVGID_2_);}
	.st2{fill:#EBEAEA;}
	.st3{fill:#9D9C9A;}
</style>
<title>biodiversidad</title>
<g id="Layer_2">
	<g id="Layer_1-2">
		<g id="Capa_2">
			<circle class="st0" cx="44.8" cy="44.8" r="44.8"/>
		</g>
		<g id="Capa_1">
			<g>
				<defs>
					<circle id="SVGID_1_" cx="44.8" cy="44.8" r="44.8"/>
				</defs>
				<clipPath id="SVGID_2_">
					<use xlink:href="#SVGID_1_"  style="overflow:visible;"/>
				</clipPath>
				<g class="st1">
					<path class="st2" d="M14,59.5l43.6,33l29.8-12l3-6.4l2.9-5.7l2.2-5.3l-0.2-10.2l-2.8-5.1L62.2,17.5c0,0-17.2,12.9-18.9,14.4
						c-3.1,3-0.9,14.1-4.7,11.5c1.1,2.6-14.7,4.3-17.4,5.7C19,52.7,16.6,56.2,14,59.5z"/>
				</g>
			</g>
			<g id="MainObject">
				<path class="st3" d="M62.2,17.5c-0.3,1.2-0.6,2.4-1.1,3.5c-2.3,4.5-6.2,8-11,9.7c-1.5,0.4-2.6,1.8-2.7,3.4
					c-0.2,2.8,0.2,5.6,1.1,8.2c0.4,1.4,0.8,2.7,1.2,4c-3.7-1-7.5-2-11.1-3c0.3-2.5,0.6-5.1,0.8-7.7c0-0.7,0-1.4-0.2-2.1
					c-0.2-1.4-1.3-2.5-2.6-2.9c-4.7-1.7-8.5-5-10.9-9.4c-0.5-1.2-0.9-2.4-1.3-3.6c0.1-0.1,0.2-0.1,0.3-0.2c0.5,0.4,1.1,0.8,1.7,1.1
					c2.3,1.3,4.8,1.5,7.3,1.8c1.4,0.2,2.8,0.5,4.2,0.9c1.6,0.5,3,1.5,4,2.8l1.2,1.5l0.3-0.3c2.1-3.5,5.5-4.6,9.3-5
					c2.1-0.2,4.1-0.7,6.1-1.3C60,19,60.9,18.3,62.2,17.5z"/>
				<path class="st3" d="M69.1,50.7c-1.7,1.5-3.7,2.7-5.8,3.5c-4.5,1.8-9.1,1.3-13.8-0.2c-3.8-1.2-7.7-2.6-11.5-3.6
					c-4.6-1.3-9.6-0.9-13.9,1.2c-3.5,1.8-6.6,4.2-9.3,7.1c-0.3,0.3-0.6,0.5-0.9,0.7c0.1-0.2,0.1-0.5,0.2-0.7c1.7-3.6,4.1-6.9,7-9.7
					c2.5-2.2,5.5-3.7,8.8-4.2c3.4-0.5,6.9-0.1,10.2,1c4.8,1.5,9.5,3.1,14.3,4.6c3.8,1.2,7.6,2,11.5,1.1C67,51.4,68.1,51.1,69.1,50.7
					z"/>
				<path class="st3" d="M65,39.7c-0.7,0.7-1.4,1.3-2.3,1.8c0.4-0.9,0.9-1.7,1.6-2.4c0-0.1,0-0.1-0.1-0.1c-0.4,0.1-0.9,0.2-1.3,0.4
					c-1,0.5-2,1.2-3,1.7c-0.6,0.3-1.2,0.6-1.8,0.9c-0.9,0.4-1.8,0.4-2.7,0c-0.5-0.2-0.6-0.6-0.6-1.1c0.1-1.3,0.5-2.6,1.1-3.8
					c0.2-0.5,0.5-1,0.8-1.4c1.1-1.5,1.8-1.6,3.4-1.3c0.6,0.1,1.3,0.3,1.9,0.5c-0.5-0.7-1-1.3-1.5-1.9c-0.2-0.3-0.5-0.6-0.7-0.9
					c-0.4-0.4-0.4-1,0-1.4c0.3-0.4,0.6-0.8,0.8-1.2c0.4-0.7,0.7-1.5,1.1-2.2c0.3-0.6,0.6-1.2,1-1.8c0.2-0.5,0.8-0.7,1.3-0.5
					c0.2,0.1,0.4,0.3,0.5,0.5c0.7,1,1.3,2,1.8,3.1c1.2,2.9,0.9,6.2-0.8,8.8c-0.1,0.3-0.3,0.5-0.4,0.8l0.1,0.1l0.5-0.5l1.2-1.5
					c0.1-0.1,0.3,0,0.5,0c0,0.2,0,0.4-0.1,0.5c-0.5,0.4-1,0.9-1.4,1.4c-0.1,0.1-0.1,0.2-0.1,0.4c0.1-0.1,0.2-0.2,0.4-0.2
					c1.5-1.1,3.3-1.9,5.2-2.1c2-0.2,4,0.2,5.8,1.1c0.5,0.2,1,0.5,1.4,0.8c0.5,0.3,0.6,1,0.3,1.5c0,0.1-0.1,0.1-0.2,0.2
					c-0.5,0.5-1.1,0.9-1.7,1.1c-1,0.4-1.9,1-2.6,1.8c-0.9,1-1.3,1-2.5,0.3c-0.7-0.4-1.4-0.9-2.2-1.4c-0.1,0-0.1,0-0.2-0.1
					c0.2,0.8,0.5,1.6,0.7,2.5c0.2,0.8-0.1,1.7-0.8,2.2c-1.5,1.5-3.4,2.4-5.4,2.8c-0.8,0.2-1.1-0.1-1.4-0.9c-0.4-1.4-0.1-2.8,0.6-4
					c0.6-1.2,1.1-2.4,1.6-3.7C65,40.4,65,40,65,39.7z"/>
			</g>
		</g>
	</g>
</g>
</svg>
