<svg xmlns="http://www.w3.org/2000/svg" xmlns:xlink="http://www.w3.org/1999/xlink" viewBox="0 0 93 89.7"><defs><style>.cls-1{fill:none;}.cls-2{fill:#f4f3f1;}.cls-3{clip-path:url(#clip-path);}.cls-4{fill:#ebeaea;}.cls-5{fill:#9d9c9a;}</style><clipPath id="clip-path"><circle class="cls-1" cx="44.8" cy="44.8" r="44.8"/></clipPath></defs><title>ciudad</title><g id="Layer_2" data-name="Layer 2"><g id="Layer_1-2" data-name="Layer 1"><g id="Capa_2" data-name="Capa 2"><circle class="cls-2" cx="44.8" cy="44.8" r="44.8"/></g><g id="Capa_1" data-name="Capa 1"><g class="cls-3"><path class="cls-4" d="M18.5,59.4,64.3,89.7,83.1,77.6l2.7-5.9,2.6-5.2,2-4.8L93,48.4,63.8,26.1,48.3,36.8s-2.8,7.5-4.3,9c-2.8,2.7-11.5,1.9-14.9-.5a70.57,70.57,0,0,0-9.7,3.8A16.8,16.8,0,0,1,18.5,59.4Z"/></g><g id="_Group_" data-name="&lt;Group&gt;"><rect id="_Path_" data-name="&lt;Path&gt;" class="cls-5" x="35.1" y="37.2" width="3.1" height="5.9"/><rect id="_Path_2" data-name="&lt;Path&gt;" class="cls-5" x="34.6" y="33.55" width="1.9" height="17.5" transform="translate(-19.65 44.79) rotate(-52.53)"/><rect id="_Path_3" data-name="&lt;Path&gt;" class="cls-5" x="13.95" y="41.33" width="17.5" height="1.9" transform="matrix(0.8, -0.6, 0.6, 0.8, -20.85, 22.12)"/><path id="_Compound_Path_" data-name="&lt;Compound Path&gt;" class="cls-5" d="M29,40.4,18.5,47.9V59.4h3.4V50.1h4.6v9.3H39.6V47.9Zm7.9,15.2h-7V50.1h7Z"/></g><path class="cls-5" d="M60.9,51.6a9.9,9.9,0,0,0,4.2.9A10.29,10.29,0,0,0,69.7,33a10.31,10.31,0,0,0-20,0,10.29,10.29,0,0,0,4.6,19.5,9.9,9.9,0,0,0,4.2-.9"/><polyline class="cls-5" points="58.9 47.8 59.6 40.3 60.4 47.8 60.8 48"/><polyline class="cls-5" points="58.9 48 58.5 47.8 53.8 45.1 56.9 48.7 58.5 50.6 58.4 51.6 57.9 60.5 61.4 60.5 60.9 51.6 60.8 50.6 62.4 48.8 65.5 45.1 60.7 47.8 60.4 48 60.4 47.6 59.6 40.3 58.9 47.6"/></g></g></g></svg>