<?xml version="1.0" encoding="utf-8"?>
<!-- Generator: Adobe Illustrator 20.1.0, SVG Export Plug-In . SVG Version: 6.00 Build 0)  -->
<svg version="1.1" id="Layer_1" xmlns="http://www.w3.org/2000/svg" xmlns:xlink="http://www.w3.org/1999/xlink" x="0px" y="0px"
	 viewBox="0 0 93 89.7" style="enable-background:new 0 0 93 89.7;" xml:space="preserve">
<style type="text/css">
	.st0{fill:#F4F3F1;}
	.st1{clip-path:url(#SVGID_2_);}
	.st2{fill:#EBEAEA;}
	.st3{fill:#9D9C9A;}
</style>
<title>ciudad</title>
<g id="Layer_2">
	<g id="Layer_1-2">
		<g id="Capa_2">
			<circle class="st0" cx="44.8" cy="44.8" r="44.8"/>
		</g>
		<g id="Capa_1">
			<g>
				<defs>
					<circle id="SVGID_1_" cx="44.8" cy="44.8" r="44.8"/>
				</defs>
				<clipPath id="SVGID_2_">
					<use xlink:href="#SVGID_1_"  style="overflow:visible;"/>
				</clipPath>
				<g class="st1">
					<path class="st2" d="M18.5,59.4l45.8,30.3l18.8-12.1l2.7-5.9l2.6-5.2l2-4.8L93,48.4L63.8,26.1L48.3,36.8c0,0-2.8,7.5-4.3,9
						c-2.8,2.7-11.5,1.9-14.9-0.5c-3.3,1-6.6,2.3-9.7,3.8C20.2,52.5,19.9,56.1,18.5,59.4z"/>
				</g>
			</g>
			<g id="MainObject">
				<g id="_Group_">
					<rect id="_Path_" x="35.1" y="37.2" class="st3" width="3.1" height="5.9"/>
					
						<rect id="_Path_2" x="34.6" y="33.6" transform="matrix(0.6083 -0.7937 0.7937 0.6083 -19.6558 44.7844)" class="st3" width="1.9" height="17.5"/>
					
						<rect id="_Path_3" x="13.9" y="41.4" transform="matrix(0.8 -0.6 0.6 0.8 -20.8588 22.0716)" class="st3" width="17.5" height="1.9"/>
					<path id="_Compound_Path_" class="st3" d="M29,40.4l-10.5,7.5v11.5h3.4v-9.3h4.6v9.3h13.1V47.9L29,40.4z M36.9,55.6h-7v-5.5h7
						V55.6z"/>
				</g>
				<path class="st3" d="M60.9,51.6c1.3,0.6,2.8,0.9,4.2,0.9c5.7,0,10.3-4.6,10.3-10.3c0-3.9-2.2-7.5-5.7-9.2
					c-1.4-5.5-7-8.9-12.5-7.5c-3.7,0.9-6.6,3.8-7.5,7.5c-5.1,2.5-7.2,8.7-4.6,13.8c1.7,3.5,5.3,5.7,9.2,5.7c1.4,0,2.9-0.3,4.2-0.9"
					/>
				<polyline class="st3" points="58.9,47.8 59.6,40.3 60.4,47.8 60.8,48 				"/>
				<polyline class="st3" points="58.9,48 58.5,47.8 53.8,45.1 56.9,48.7 58.5,50.6 58.4,51.6 57.9,60.5 61.4,60.5 60.9,51.6 
					60.8,50.6 62.4,48.8 65.5,45.1 60.7,47.8 60.4,48 60.4,47.6 59.6,40.3 58.9,47.6 				"/>
			</g>
		</g>
	</g>
</g>
</svg>
