<?xml version="1.0" encoding="utf-8"?>
<!-- Generator: Adobe Illustrator 20.1.0, SVG Export Plug-In . SVG Version: 6.00 Build 0)  -->
<svg version="1.1" id="Layer_1" xmlns="http://www.w3.org/2000/svg" xmlns:xlink="http://www.w3.org/1999/xlink" x="0px" y="0px"
	 viewBox="0 0 103.5 99.5" style="enable-background:new 0 0 103.5 99.5;" xml:space="preserve">
<style type="text/css">
	.st0{fill:#F4F3F1;}
	.st1{clip-path:url(#SVGID_2_);}
	.st2{fill:#EBEAEA;}
	.st3{fill:#9D9C9A;}
</style>
<title>ecotec</title>
<g id="Layer_2">
	<g id="Layer_1-2">
		<g id="Capa_2">
			<circle class="st0" cx="44.8" cy="44.8" r="44.8"/>
		</g>
		<g id="Capa_1">
			<g>
				<defs>
					<circle id="SVGID_1_" cx="44.8" cy="44.8" r="44.8"/>
				</defs>
				<clipPath id="SVGID_2_">
					<use xlink:href="#SVGID_1_"  style="overflow:visible;"/>
				</clipPath>
				<g class="st1">
					<path class="st2" d="M77.5,99.5l13.6-6.1L99.3,81l1.5-7.4l2.3-4.6l0.4-5.7l-10-11.7L49,17.3c0,0-6.9,13.4-14.6,14.8
						c-6.8,5.7-0.5,11.7-1.8,17.2c-0.3,1.4-2.3,18.5-2.3,18.5C34.1,71.1,77.5,99.5,77.5,99.5z"/>
				</g>
			</g>
			<path id="MainObject" class="st3" d="M49.6,29.9h10.5c1.6,0,2.2,0.6,2.2,2.2v27.6c0.1,0.7-0.2,1.4-0.7,1.8
				c-0.2,0.2-0.3,0.5-0.3,0.8v5c0,0.8-0.4,1-1,1h-2.1c-0.7,0-1-0.3-1-1.1v-5.3H34.4v5.4c0,0.7-0.3,1-1,1h-2.3c-0.6,0-0.9-0.3-0.9-1
				v-5c0-0.3-0.1-0.6-0.2-0.8c-0.5-0.4-0.8-1.1-0.8-1.8V32c0-1.4,0.6-2.1,2.1-2.1h9.4c1.2,0,1.2,0,1.2-1.1V18.5
				c0-0.8,0.7-1.4,1.6-1.4c0,0,0,0,0,0H48c0.9-0.1,1.6,0.6,1.7,1.5c0,0,0,0,0,0v10.3C49.6,29.2,49.6,29.6,49.6,29.9z M53.8,53.6h3.7
				V34.5H33.9v19.1h4.8 M39.9,54.1c-0.9-1.1-1.1-2.6-0.7-3.9c0.5-1.5,1.1-3,1.8-4.7c0.3,0.8,0.5,1.5,0.8,2.3
				c1.6-2.1,2.5-4.7,2.6-7.3c2.2,1.5,3.9,3.2,4.6,5.8v-2.4c1.7,1.5,2.8,3.6,3.3,5.8c0.4,2.4-0.6,4.2-2.6,5.9"/>
		</g>
	</g>
</g>
</svg>
