<svg xmlns="http://www.w3.org/2000/svg" xmlns:xlink="http://www.w3.org/1999/xlink" viewBox="0 0 103.5 99.5"><defs><style>.cls-1{fill:none;}.cls-2{fill:#f4f3f1;}.cls-3{clip-path:url(#clip-path);}.cls-4{fill:#ebeaea;}.cls-5{fill:#9d9c9a;}</style><clipPath id="clip-path"><circle class="cls-1" cx="44.8" cy="44.8" r="44.8"/></clipPath></defs><title>ecotec</title><g id="Layer_2" data-name="Layer 2"><g id="Layer_1-2" data-name="Layer 1"><g id="Capa_2" data-name="Capa 2"><circle class="cls-2" cx="44.8" cy="44.8" r="44.8"/></g><g id="Capa_1" data-name="Capa 1"><g class="cls-3"><path class="cls-4" d="M77.5,99.5l13.6-6.1L99.3,81l1.5-7.4,2.3-4.6.4-5.7-10-11.7L49,17.3S42.1,30.7,34.4,32.1c-6.8,5.7-.5,11.7-1.8,17.2-.3,1.4-2.3,18.5-2.3,18.5C34.1,71.1,77.5,99.5,77.5,99.5Z"/></g><path class="cls-5" d="M49.6,29.9H60.1c1.6,0,2.2.6,2.2,2.2V59.7a2.09,2.09,0,0,1-.7,1.8,1.14,1.14,0,0,0-.3.8v5c0,.8-.4,1-1,1H58.2c-.7,0-1-.3-1-1.1V61.9H34.4v5.4c0,.7-.3,1-1,1H31.1c-.6,0-.9-.3-.9-1v-5a1.88,1.88,0,0,0-.2-.8,2.17,2.17,0,0,1-.8-1.8V32c0-1.4.6-2.1,2.1-2.1h9.4c1.2,0,1.2,0,1.2-1.1V18.5a1.48,1.48,0,0,1,1.6-1.4H48a1.59,1.59,0,0,1,1.7,1.5V28.9A2.79,2.79,0,0,0,49.6,29.9Zm4.2,23.7h3.7V34.5H33.9V53.6h4.8m1.2.5a4.32,4.32,0,0,1-.7-3.9c.5-1.5,1.1-3,1.8-4.7.3.8.5,1.5.8,2.3a12.7,12.7,0,0,0,2.6-7.3c2.2,1.5,3.9,3.2,4.6,5.8V43.9a11,11,0,0,1,3.3,5.8c.4,2.4-.6,4.2-2.6,5.9"/></g></g></g></svg>