<?xml version="1.0" encoding="utf-8"?>
<!-- Generator: Adobe Illustrator 20.1.0, SVG Export Plug-In . SVG Version: 6.00 Build 0)  -->
<svg version="1.1" id="Layer_1" xmlns="http://www.w3.org/2000/svg" xmlns:xlink="http://www.w3.org/1999/xlink" x="0px" y="0px"
	 viewBox="0 0 96.9 92.5" style="enable-background:new 0 0 96.9 92.5;" xml:space="preserve">
<style type="text/css">
	.st0{fill:#F4F3F1;}
	.st1{clip-path:url(#SVGID_2_);}
	.st2{fill:#EBEAEA;}
	.st3{fill:#9D9C9A;}
</style>
<title>educacion</title>
<g id="Layer_2">
	<g id="Layer_1-2">
		<g id="Capa_2">
			<circle class="st0" cx="44.8" cy="44.8" r="44.8"/>
		</g>
		<g id="Capa_1">
			<g>
				<defs>
					<circle id="SVGID_1_" cx="44.8" cy="44.8" r="44.8"/>
				</defs>
				<clipPath id="SVGID_2_">
					<use xlink:href="#SVGID_1_"  style="overflow:visible;"/>
				</clipPath>
				<g class="st1">
					<path class="st2" d="M64.3,92.5l20.2-7.4l8.2-12.4l1.5-7.4l2.3-4.6l0.4-5.7l-4.1-6.5L53.6,19c0,0-3.2,5.6-6.5,7.8
						c-5.4,3.6,1.6,14.6,0.3,20.1c-0.3,1.4-12.4-8.6-12.2-6.3c0.1,0.7,1.3,4.7,1.6,7.3l-1.6,4.8c-4.2,0.9-8.4,1.6-12.7,2.1
						c-1.6,0-4.6,7.9-3.3,8.8C20.5,64.5,64.3,92.5,64.3,92.5z"/>
				</g>
			</g>
			<g id="MainObject">
				<path class="st3" d="M70.8,62.5L70.8,62.5c0-0.1-0.1-0.2-0.3-0.3c-2.1-0.3-13-2.1-16.6-2.6c-3-0.4-7.2,0.1-8.8,1.4
					c-1.6-1.3-5.7-1.9-8.8-1.4c-3.6,0.5-14.5,2.3-16.6,2.6c-0.1,0.1-0.2,0.1-0.3,0.2l0,0L19,63.5c0.1,0.1,0.2,0.1,0.3,0.1
					c2.1-0.3,13.2-2.1,16.9-2.7c3.3-0.5,7.3-0.1,8.6,1.4c0,0,0.2,0.2,0.3,0.2s0.4-0.2,0.4-0.3c1.3-1.5,5.2-1.9,8.5-1.4
					c3.6,0.5,14.7,2.3,16.9,2.7c0.2,0,0.3,0,0.3-0.1C71.2,63.4,70.8,62.5,70.8,62.5z"/>
				<path class="st3" d="M69.2,54.9L69.2,54.9c0-0.1-0.1-0.2-0.2-0.2h-0.2c-0.4-0.1-1.6-0.3-3.1-0.6c-3.6-0.7-9.1-1.7-11.7-2.1
					c-0.8-0.1-1.5-0.2-2.3-0.2c-2.3-0.1-4.5,0.4-6.6,1.4c-1.6-1.1-4.5-1.4-6.6-1.4c-0.8,0-1.5,0.1-2.3,0.2
					c-2.6,0.4-8.1,1.4-11.7,2.1c-1.5,0.3-2.8,0.5-3.1,0.6h-0.2c-0.1,0.1-0.2,0.1-0.2,0.2l0,0l-2,5.7c0,0.1,0.1,0.2,0.4,0.1l0.5-0.1
					c0.1,0,12.4-2.1,16.4-2.7c0.9-0.1,1.7-0.2,2.6-0.2c4.2,0,5.1,1.1,5.7,1.6c0.2,0.2,0.3,0.4,0.6,0.4s0.3-0.2,0.6-0.4
					c0.7-0.5,1.5-1.6,5.7-1.6c0.9,0,1.7,0.1,2.6,0.2c4,0.6,16.3,2.7,16.4,2.7l0.5,0.1c0.3,0,0.4,0,0.4-0.1L69.2,54.9z M54.1,56.8
					c-0.9-0.1-1.8-0.2-2.7-0.2c-1.1,0-4.6,0.1-6.2,1.6l0,0c-1.6-1.5-5.1-1.6-6.2-1.6c-0.9,0-1.8,0.1-2.7,0.2
					c-3.3,0.5-12.5,2-15.5,2.6l1.3-3.6c0.5-0.1,1.5-0.3,2.8-0.5c3.6-0.7,9.1-1.7,11.7-2.1c0.7-0.1,1.4-0.1,2.1-0.1
					c2.7,0,5.1,0.6,6.2,1.5c0,0,0.2,0.3,0.4,0.3s0.4-0.3,0.4-0.3c1-0.9,3.5-1.5,6.2-1.5c0.7,0,1.4,0,2.1,0.1
					c2.6,0.4,8.1,1.4,11.7,2.1c1.3,0.2,2.3,0.4,2.8,0.5l1.3,3.6C66.6,58.8,57.4,57.3,54.1,56.8z"/>
				<path class="st3" d="M53.6,19c0,0-7.7,2.8-10.2,12.9c-0.7,2.9,0.7,7.5,2.9,9.4c-0.2,2,0,4,0.6,5.9c-0.6-0.7-1.3-1.4-2.1-1.9
					c-0.3-2.4-1.6-4.5-3.6-5.8C34.8,36.2,29.8,39,29.8,39s0.6,5.7,7.1,9c2.2,1.1,5.1,0.2,6.8-0.5c-2.2-2.3-4.8-4.3-7.6-5.7
					c5.6,0.9,11.6,7.9,12.6,9.1c0.1,0.1,0.1,0.1,0.1,0.2l0,0v-0.2c-0.2-1.9-2.3-15.3,2-22.3c-1.1,4.4-1.4,9-1,13.5
					c2.4-1.2,6-3.4,6.9-6.9C59.2,25,53.6,19,53.6,19z"/>
			</g>
		</g>
	</g>
</g>
</svg>
