<svg xmlns="http://www.w3.org/2000/svg" xmlns:xlink="http://www.w3.org/1999/xlink" viewBox="0 0 96.9 92.5"><defs><style>.cls-1{fill:none;}.cls-2{fill:#f4f3f1;}.cls-3{clip-path:url(#clip-path);}.cls-4{fill:#ebeaea;}.cls-5{fill:#9d9c9a;}</style><clipPath id="clip-path"><circle class="cls-1" cx="44.8" cy="44.8" r="44.8"/></clipPath></defs><title>educacion</title><g id="Layer_2" data-name="Layer 2"><g id="Layer_1-2" data-name="Layer 1"><g id="Capa_2" data-name="Capa 2"><circle class="cls-2" cx="44.8" cy="44.8" r="44.8"/></g><g id="Capa_1" data-name="Capa 1"><g class="cls-3"><path class="cls-4" d="M64.3,92.5l20.2-7.4,8.2-12.4,1.5-7.4,2.3-4.6.4-5.7-4.1-6.5L53.6,19s-3.2,5.6-6.5,7.8c-5.4,3.6,1.6,14.6.3,20.1-.3,1.4-12.4-8.6-12.2-6.3.1.7,1.3,4.7,1.6,7.3l-1.6,4.8a114.75,114.75,0,0,1-12.7,2.1c-1.6,0-4.6,7.9-3.3,8.8S64.3,92.5,64.3,92.5Z"/></g><path class="cls-5" d="M70.8,62.5h0q0-.15-.3-.3c-2.1-.3-13-2.1-16.6-2.6-3-.4-7.2.1-8.8,1.4-1.6-1.3-5.7-1.9-8.8-1.4-3.6.5-14.5,2.3-16.6,2.6a1.24,1.24,0,0,0-.3.2h0L19,63.5a.44.44,0,0,0,.3.1c2.1-.3,13.2-2.1,16.9-2.7,3.3-.5,7.3-.1,8.6,1.4,0,0,.2.2.3.2s.4-.2.4-.3c1.3-1.5,5.2-1.9,8.5-1.4,3.6.5,14.7,2.3,16.9,2.7.2,0,.3,0,.3-.1l-.4-.9Z"/><path class="cls-5" d="M69.2,54.9h0a.22.22,0,0,0-.2-.2h-.2c-.4-.1-1.6-.3-3.1-.6-3.6-.7-9.1-1.7-11.7-2.1a16.41,16.41,0,0,0-2.3-.2,14.49,14.49,0,0,0-6.6,1.4c-1.6-1.1-4.5-1.4-6.6-1.4a16.41,16.41,0,0,0-2.3.2c-2.6.4-8.1,1.4-11.7,2.1-1.5.3-2.8.5-3.1.6h-.2c-.1.1-.2.1-.2.2h0l-2,5.7c0,.1.1.2.4.1l.5-.1c.1,0,12.4-2.1,16.4-2.7a21.11,21.11,0,0,1,2.6-.2c4.2,0,5.1,1.1,5.7,1.6.2.2.3.4.6.4s.3-.2.6-.4c.7-.5,1.5-1.6,5.7-1.6a21.12,21.12,0,0,1,2.6.2c4,.6,16.3,2.7,16.4,2.7l.5.1c.3,0,.4,0,.4-.1ZM54.1,56.8a24.52,24.52,0,0,0-2.7-.2c-1.1,0-4.6.1-6.2,1.6h0c-1.6-1.5-5.1-1.6-6.2-1.6a24.52,24.52,0,0,0-2.7.2c-3.3.5-12.5,2-15.5,2.6l1.3-3.6c.5-.1,1.5-.3,2.8-.5,3.6-.7,9.1-1.7,11.7-2.1a14.77,14.77,0,0,1,2.1-.1c2.7,0,5.1.6,6.2,1.5,0,0,.2.3.4.3s.4-.3.4-.3c1-.9,3.5-1.5,6.2-1.5a13.42,13.42,0,0,1,2.1.1c2.6.4,8.1,1.4,11.7,2.1,1.3.2,2.3.4,2.8.5l1.3,3.6C66.6,58.8,57.4,57.3,54.1,56.8Z"/><path class="cls-5" d="M53.6,19s-7.7,2.8-10.2,12.9c-.7,2.9.7,7.5,2.9,9.4a14.88,14.88,0,0,0,.6,5.9,10,10,0,0,0-2.1-1.9,7.94,7.94,0,0,0-3.6-5.8c-6.4-3.3-11.4-.5-11.4-.5s.6,5.7,7.1,9c2.2,1.1,5.1.2,6.8-.5a27.07,27.07,0,0,0-7.6-5.7c5.6.9,11.6,7.9,12.6,9.1a.31.31,0,0,1,.1.2h0v-.2c-.2-1.9-2.3-15.3,2-22.3a40.54,40.54,0,0,0-1,13.5c2.4-1.2,6-3.4,6.9-6.9C59.2,25,53.6,19,53.6,19Z"/></g></g></g></svg>