<?xml version="1.0" encoding="utf-8"?>
<!-- Generator: Adobe Illustrator 20.1.0, SVG Export Plug-In . SVG Version: 6.00 Build 0)  -->
<svg version="1.1" id="Layer_1" xmlns="http://www.w3.org/2000/svg" xmlns:xlink="http://www.w3.org/1999/xlink" x="0px" y="0px"
	 viewBox="0 0 90.5 89.8" style="enable-background:new 0 0 90.5 89.8;" xml:space="preserve">
<style type="text/css">
	.st0{fill:#F4F3F1;}
	.st1{clip-path:url(#SVGID_2_);}
	.st2{fill:#EBEAEA;}
	.st3{fill:#9D9C9A;}
</style>
<title>energia</title>
<g id="Layer_2">
	<g id="Layer_1-2">
		<g id="Capa_2">
			<circle class="st0" cx="44.8" cy="44.8" r="44.8"/>
		</g>
		<g id="Capa_1">
			<g>
				<defs>
					<circle id="SVGID_1_" cx="44.8" cy="44.8" r="44.8"/>
				</defs>
				<clipPath id="SVGID_2_">
					<use xlink:href="#SVGID_1_"  style="overflow:visible;"/>
				</clipPath>
				<g class="st1">
					<path class="st2" d="M29.2,64.1l35.2,25.7l18.8-12.1l2.7-5.9l2.6-5.2l2-4.8L69.1,44.4l-19.7-6.8l-1.2-0.8c0,0-4.1-2.9-6.1-2.2
						c-5.9,2-4.8,4.2-5,7c-0.1,1.4-2.4,8.6-2.2,11.1C35.6,58.3,29.2,64.1,29.2,64.1z"/>
				</g>
			</g>
			<g id="MainObject">
				<path class="st3" d="M34.6,19.7c1.6,0.7,3,1.8,4,3.2c3.6,4.4,6.8,9,9.6,13.9c-2.1-1.2-4.6-1.4-6.8-0.4c-2.1,1-3.7,2.9-4.3,5.2
					c-1.7-4.9-3-9.9-3.9-15c-0.2-1.5-0.2-3.1-0.3-4.7c-0.1-1,0.5-1.9,1.4-2.2H34.6z"/>
				<path class="st3" d="M48.3,49.5c4.3-3.5,4.7-6.9,1.2-11.9c2.9,0.7,5.8,1.3,8.5,2.1c3.1,1,6.2,2.2,9.3,3.3
					c0.7,0.3,1.3,0.8,1.9,1.3c1,0.9,0.9,1.9-0.3,2.5c-1.1,0.6-2.4,1-3.6,1.3C59.7,49.2,54,49.6,48.3,49.5z"/>
				<path class="st3" d="M36.9,43.5c0.2,3.9,3.8,8.1,9.7,6.9c-1.4,1.5-2.7,3-4.1,4.4c-2.8,3.1-6,5.9-9.5,8.2c-0.7,0.4-1.4,0.8-2.2,1
					c-1.2,0.4-2-0.2-1.9-1.4c0.1-1.5,0.4-2.9,0.8-4.3c1.7-5.2,4.3-9.9,6.9-14.7C36.7,43.6,36.8,43.5,36.9,43.5z"/>
				<path class="st3" d="M48.6,43.2c0,2.3-2,4.2-4.3,4.2s-4.2-2-4.2-4.3l0,0c0-2.3,2-4.2,4.3-4.2c0,0,0,0,0,0c2.3,0,4.2,1.8,4.2,4.1
					C48.6,43,48.6,43.1,48.6,43.2z"/>
			</g>
		</g>
	</g>
</g>
</svg>
