<svg xmlns="http://www.w3.org/2000/svg" xmlns:xlink="http://www.w3.org/1999/xlink" viewBox="0 0 90.5 89.8"><defs><style>.cls-1{fill:none;}.cls-2{fill:#f4f3f1;}.cls-3{clip-path:url(#clip-path);}.cls-4{fill:#ebeaea;}.cls-5{fill:#9d9c9a;}</style><clipPath id="clip-path"><circle class="cls-1" cx="44.8" cy="44.8" r="44.8"/></clipPath></defs><title>energia</title><g id="Layer_2" data-name="Layer 2"><g id="Layer_1-2" data-name="Layer 1"><g id="Capa_2" data-name="Capa 2"><circle class="cls-2" cx="44.8" cy="44.8" r="44.8"/></g><g id="Capa_1" data-name="Capa 1"><g class="cls-3"><path class="cls-4" d="M29.2,64.1,64.4,89.8,83.2,77.7l2.7-5.9,2.6-5.2,2-4.8L69.1,44.4,49.4,37.6l-1.2-.8s-4.1-2.9-6.1-2.2c-5.9,2-4.8,4.2-5,7-.1,1.4-2.4,8.6-2.2,11.1C35.6,58.3,29.2,64.1,29.2,64.1Z"/></g><path class="cls-5" d="M34.6,19.7a9.67,9.67,0,0,1,4,3.2,110,110,0,0,1,9.6,13.9,7.48,7.48,0,0,0-6.8-.4,7.83,7.83,0,0,0-4.3,5.2,94.8,94.8,0,0,1-3.9-15c-.2-1.5-.2-3.1-.3-4.7a2.16,2.16,0,0,1,1.4-2.2Z"/><path class="cls-5" d="M48.3,49.5c4.3-3.5,4.7-6.9,1.2-11.9,2.9.7,5.8,1.3,8.5,2.1,3.1,1,6.2,2.2,9.3,3.3a8,8,0,0,1,1.9,1.3c1,.9.9,1.9-.3,2.5a15.51,15.51,0,0,1-3.6,1.3A80.22,80.22,0,0,1,48.3,49.5Z"/><path class="cls-5" d="M36.9,43.5c.2,3.9,3.8,8.1,9.7,6.9-1.4,1.5-2.7,3-4.1,4.4A49.59,49.59,0,0,1,33,63a8.75,8.75,0,0,1-2.2,1c-1.2.4-2-.2-1.9-1.4a21.67,21.67,0,0,1,.8-4.3c1.7-5.2,4.3-9.9,6.9-14.7C36.7,43.6,36.8,43.5,36.9,43.5Z"/><path class="cls-5" d="M48.6,43.2a4.25,4.25,0,0,1-8.5-.1,4.25,4.25,0,0,1,4.3-4.2A4.13,4.13,0,0,1,48.6,43.2Z"/></g></g></g></svg>