<?xml version="1.0" encoding="utf-8"?>
<!-- Generator: Adobe Illustrator 20.1.0, SVG Export Plug-In . SVG Version: 6.00 Build 0)  -->
<svg version="1.1" id="Layer_1" xmlns="http://www.w3.org/2000/svg" xmlns:xlink="http://www.w3.org/1999/xlink" x="0px" y="0px"
	 viewBox="0 0 96.7 91.6" style="enable-background:new 0 0 96.7 91.6;" xml:space="preserve">
<style type="text/css">
	.st0{fill:#F4F3F1;}
	.st1{clip-path:url(#SVGID_2_);}
	.st2{fill:#EBEAEA;}
	.st3{fill:#9D9C9A;}
</style>
<title>innovacion</title>
<g id="Layer_2">
	<g id="Layer_1-2">
		<g id="Capa_2">
			<circle class="st0" cx="44.8" cy="44.8" r="44.8"/>
		</g>
		<g id="Capa_1">
			<g>
				<defs>
					<circle id="SVGID_1_" cx="44.8" cy="44.8" r="44.8"/>
				</defs>
				<clipPath id="SVGID_2_">
					<use xlink:href="#SVGID_1_"  style="overflow:visible;"/>
				</clipPath>
				<g class="st1">
					<path class="st2" d="M78.1,91.6l8.7-7.8l2.8-10l4.6-6.2l2.5-7.9l-3.1-4.3l-4-1.8L60.9,34c0,0-2.7,4.7-17-1.6
						c-8.4-3.7-10.1,7.7-11.4,13.1c-0.2,0.9,4.6,6.8,6.2,11.5c0.8,2.4-1.2,5.5-1.2,5.5C38.8,65.6,78.1,91.6,78.1,91.6z"/>
				</g>
			</g>
			<path class="st3" d="M66,69.3"/>
			<g id="MainObject">
				<path class="st3" d="M59.1,40.2c-2.5-7.9-10.9-12.3-18.8-9.8S28,41.3,30.5,49.2S41.4,61.5,49.3,59c0,0,0.1,0,0.1,0
					C57.3,56.5,61.6,48.1,59.1,40.2z M48.1,54.7c-5.5,1.8-11.4-1.3-13.2-6.8c-1.8-5.5,1.3-11.4,6.8-13.2c5.5-1.8,11.4,1.3,13.2,6.8
					c0,0,0,0,0,0C56.7,47,53.6,52.9,48.1,54.7z"/>
				<polygon class="st3" points="35.7,35.8 42.4,32.2 37.4,26.9 34.2,28.6 				"/>
				<polygon class="st3" points="32.3,47.1 35.9,53.8 28.8,55.4 27,52.2 				"/>
				<polygon class="st3" points="54,53.7 47.3,57.3 52.3,62.5 55.5,60.8 				"/>
				<polygon class="st3" points="57.4,42.4 53.8,35.6 61,34.1 62.7,37.3 				"/>
				<polygon class="st3" points="32.1,44.8 34.3,37.6 27,37.4 25.9,40.9 				"/>
				<polygon class="st3" points="37.7,55.3 45,57.5 41,63.7 37.6,62.6 				"/>
				<polygon class="st3" points="57.6,44.6 55.4,51.9 62.7,52 63.8,48.5 				"/>
				<polygon class="st3" points="52,34.2 44.8,32 48.7,25.8 52.2,26.9 				"/>
				<circle class="st3" cx="44.8" cy="44.8" r="4.1"/>
			</g>
		</g>
	</g>
</g>
</svg>
