<svg xmlns="http://www.w3.org/2000/svg" xmlns:xlink="http://www.w3.org/1999/xlink" viewBox="0 0 96.7 91.6"><defs><style>.cls-1{fill:none;}.cls-2{fill:#f4f3f1;}.cls-3{clip-path:url(#clip-path);}.cls-4{fill:#ebeaea;}.cls-5{fill:#9d9c9a;}</style><clipPath id="clip-path"><circle class="cls-1" cx="44.8" cy="44.8" r="44.8"/></clipPath></defs><title>innovacion</title><g id="Layer_2" data-name="Layer 2"><g id="Layer_1-2" data-name="Layer 1"><g id="Capa_2" data-name="Capa 2"><circle class="cls-2" cx="44.8" cy="44.8" r="44.8"/></g><g id="Capa_1" data-name="Capa 1"><g class="cls-3"><path class="cls-4" d="M78.1,91.6l8.7-7.8,2.8-10,4.6-6.2,2.5-7.9-3.1-4.3-4-1.8L60.9,34s-2.7,4.7-17-1.6c-8.4-3.7-10.1,7.7-11.4,13.1-.2.9,4.6,6.8,6.2,11.5.8,2.4-1.2,5.5-1.2,5.5C38.8,65.6,78.1,91.6,78.1,91.6Z"/></g><path class="cls-5" d="M59.1,40.2A15,15,0,1,0,49.4,59,15,15,0,0,0,59.1,40.2Zm-11,14.5a10.5,10.5,0,1,1,6.8-13.2A10.51,10.51,0,0,1,48.1,54.7Z"/><polygon class="cls-5" points="35.7 35.8 42.4 32.2 37.4 26.9 34.2 28.6 35.7 35.8"/><polygon class="cls-5" points="32.3 47.1 35.9 53.8 28.8 55.4 27 52.2 32.3 47.1"/><polygon class="cls-5" points="54 53.7 47.3 57.3 52.3 62.5 55.5 60.8 54 53.7"/><polygon class="cls-5" points="57.4 42.4 53.8 35.6 61 34.1 62.7 37.3 57.4 42.4"/><polygon class="cls-5" points="32.1 44.8 34.3 37.6 27 37.4 25.9 40.9 32.1 44.8"/><polygon class="cls-5" points="37.7 55.3 45 57.5 41 63.7 37.6 62.6 37.7 55.3"/><polygon class="cls-5" points="57.6 44.6 55.4 51.9 62.7 52 63.8 48.5 57.6 44.6"/><polygon class="cls-5" points="52 34.2 44.8 32 48.7 25.8 52.2 26.9 52 34.2"/><path class="cls-5" d="M66,69.3"/><circle class="cls-5" cx="44.8" cy="44.8" r="4.1"/></g></g></g></svg>