<svg xmlns="http://www.w3.org/2000/svg" xmlns:xlink="http://www.w3.org/1999/xlink" viewBox="0 0 91.8 89.6"><defs><style>.cls-1{fill:none;}.cls-2{fill:#f4f3f1;}.cls-3{clip-path:url(#clip-path);}.cls-4{fill:#ebeaea;}.cls-5{fill:#9d9c9a;}</style><clipPath id="clip-path"><circle class="cls-1" cx="44.8" cy="44.8" r="44.8"/></clipPath></defs><title>primario</title><g id="Layer_2" data-name="Layer 2"><g id="Layer_1-2" data-name="Layer 1"><g id="Capa_2" data-name="Capa 2"><circle class="cls-2" cx="44.8" cy="44.8" r="44.8"/></g><g id="Capa_1" data-name="Capa 1"><g class="cls-3"><polyline class="cls-4" points="43.2 68.8 68.9 86.5 81.3 76.1 86.9 63.9 88.7 60.9 91.8 56.1 45.1 19.5"/></g><path class="cls-5" d="M45.1,19.5a11.8,11.8,0,0,1,3.5,6.2,6.91,6.91,0,0,1-3.5,7.2,6.79,6.79,0,0,1-3.5-7.6A12.13,12.13,0,0,1,45.1,19.5Z"/><path class="cls-5" d="M46.3,37.8a5.67,5.67,0,0,1,3.4-5.6,10.72,10.72,0,0,1,4.6-1.1,1,1,0,0,1,.7.5c-.2,2.4-.6,4.7-2.5,6.5a6.06,6.06,0,0,1-5.7,1.6c-.2,0-.5-.4-.5-.6A5.65,5.65,0,0,1,46.3,37.8Z"/><path class="cls-5" d="M46.2,56c0-2.7,1.1-4.7,3.5-5.7a39,39,0,0,1,4.6-1.2c.4-.1.8,0,.7.6a12,12,0,0,1-1.8,5.8,6.3,6.3,0,0,1-6,2.4C45.8,57.8,46.4,56.7,46.2,56Z"/><path class="cls-5" d="M35,49.3c3.5-.7,7.8,1.5,8.7,4.5a13.48,13.48,0,0,1,.2,3.5c0,.2-.4.5-.7.6a6,6,0,0,1-7.1-4.1A22.75,22.75,0,0,1,35,49.3Z"/><path class="cls-5" d="M48.4,48.9c-2.2,0-2.2,0-2.2-2,0-3.3,2-5.6,5.7-6.5a18.66,18.66,0,0,1,2.5-.4c.2,0,.7.3.7.5-.2,2.7-.7,5.2-2.9,7.1A6,6,0,0,1,48.4,48.9Z"/><path class="cls-5" d="M35.1,40.1c3.8-.1,7.9,1.5,8.6,5a10.75,10.75,0,0,1,.1,3.1c0,.2-.6.5-.9.6-4.7.5-6.6-2.4-7.4-5.9A23.58,23.58,0,0,1,35.1,40.1Z"/><path class="cls-5" d="M44,37.9c-.1,1.9-.1,2-2,2A6,6,0,0,1,36.2,36a31.28,31.28,0,0,1-1-4.4.89.89,0,0,1,.4-.5c3.1-.6,7.5,2,8.2,5C43.9,36.7,43.9,37.3,44,37.9Z"/><path class="cls-5" d="M43.2,68.8c0-5.7.2.2,0-4.5,0-3.1,0-3.1,2-5.5A16.18,16.18,0,0,1,47,60.7a2.5,2.5,0,0,1,.3,1.3c0,6,0-.7.1,5.3a7.57,7.57,0,0,0,.1,1.5l-.2.2H43.4C43.3,68.9,43.2,68.9,43.2,68.8Z"/></g></g></g></svg>