<?xml version="1.0" encoding="utf-8"?>
<!-- Generator: Adobe Illustrator 20.1.0, SVG Export Plug-In . SVG Version: 6.00 Build 0)  -->
<svg version="1.1" id="Layer_1" xmlns="http://www.w3.org/2000/svg" xmlns:xlink="http://www.w3.org/1999/xlink" x="0px" y="0px"
	 viewBox="0 0 91.8 89.6" style="enable-background:new 0 0 91.8 89.6;" xml:space="preserve">
<style type="text/css">
	.st0{fill:#F4F3F1;}
	.st1{clip-path:url(#SVGID_2_);}
	.st2{fill:#EBEAEA;}
	.st3{fill:#9D9C9A;}
</style>
<title>primario</title>
<g id="Layer_2">
	<g id="Layer_1-2">
		<g id="Capa_2">
			<circle class="st0" cx="44.8" cy="44.8" r="44.8"/>
		</g>
		<g id="Capa_1">
			<g>
				<defs>
					<circle id="SVGID_1_" cx="44.8" cy="44.8" r="44.8"/>
				</defs>
				<clipPath id="SVGID_2_">
					<use xlink:href="#SVGID_1_"  style="overflow:visible;"/>
				</clipPath>
				<g class="st1">
					<polyline class="st2" points="43.2,68.8 68.9,86.5 81.3,76.1 86.9,63.9 88.7,60.9 91.8,56.1 45.1,19.5 					"/>
				</g>
			</g>
			<g id="MainObject">
				<path class="st3" d="M45.1,19.5c1.8,1.7,3,3.8,3.5,6.2c0.5,2.9-0.9,5.8-3.5,7.2c-2.8-1.4-4.2-4.6-3.5-7.6
					C42.2,23.1,43.4,21.1,45.1,19.5z"/>
				<path class="st3" d="M46.3,37.8c-0.2-2.4,1.2-4.6,3.4-5.6c1.4-0.7,3-1.1,4.6-1.1c0.3,0.1,0.6,0.2,0.7,0.5
					c-0.2,2.4-0.6,4.7-2.5,6.5c-1.5,1.5-3.7,2.1-5.7,1.6c-0.2,0-0.5-0.4-0.5-0.6C46.2,38.7,46.2,38.2,46.3,37.8z"/>
				<path class="st3" d="M46.2,56c0-2.7,1.1-4.7,3.5-5.7c1.5-0.5,3-0.9,4.6-1.2c0.4-0.1,0.8,0,0.7,0.6c-0.1,2.1-0.7,4.1-1.8,5.8
					c-1.4,1.8-3.7,2.8-6,2.4C45.8,57.8,46.4,56.7,46.2,56z"/>
				<path class="st3" d="M35,49.3c3.5-0.7,7.8,1.5,8.7,4.5c0.2,1.2,0.3,2.3,0.2,3.5c0,0.2-0.4,0.5-0.7,0.6c-3.1,0.7-6.2-1.1-7.1-4.1
					C35.6,52.3,35.2,50.8,35,49.3z"/>
				<path class="st3" d="M48.4,48.9c-2.2,0-2.2,0-2.2-2c0-3.3,2-5.6,5.7-6.5c0.8-0.2,1.7-0.3,2.5-0.4c0.2,0,0.7,0.3,0.7,0.5
					c-0.2,2.7-0.7,5.2-2.9,7.1C51.1,48.5,49.8,48.9,48.4,48.9z"/>
				<path class="st3" d="M35.1,40.1c3.8-0.1,7.9,1.5,8.6,5c0.2,1,0.2,2.1,0.1,3.1c0,0.2-0.6,0.5-0.9,0.6c-4.7,0.5-6.6-2.4-7.4-5.9
					C35.3,42,35.2,41,35.1,40.1z"/>
				<path class="st3" d="M44,37.9c-0.1,1.9-0.1,2-2,2c-2.6,0.1-4.9-1.5-5.8-3.9c-0.4-1.4-0.8-2.9-1-4.4c0.1-0.2,0.2-0.4,0.4-0.5
					c3.1-0.6,7.5,2,8.2,5C43.9,36.7,43.9,37.3,44,37.9z"/>
				<path class="st3" d="M43.2,68.8c0-5.7,0.2,0.2,0-4.5c0-3.1,0-3.1,2-5.5c0.7,0.6,1.3,1.2,1.8,1.9c0.2,0.4,0.3,0.8,0.3,1.3
					c0,6,0-0.7,0.1,5.3c0,0.5,0,1,0.1,1.5L47.3,69h-3.9C43.3,68.9,43.2,68.9,43.2,68.8z"/>
			</g>
		</g>
	</g>
</g>
</svg>
