<?xml version="1.0" encoding="utf-8"?>
<!-- Generator: Adobe Illustrator 20.1.0, SVG Export Plug-In . SVG Version: 6.00 Build 0)  -->
<svg version="1.1" id="Layer_1" xmlns="http://www.w3.org/2000/svg" xmlns:xlink="http://www.w3.org/1999/xlink" x="0px" y="0px"
	 viewBox="0 0 89.6 89.6" style="enable-background:new 0 0 89.6 89.6;" xml:space="preserve">
<style type="text/css">
	.st0{fill:#F4F3F1;}
	.st1{clip-path:url(#SVGID_2_);}
	.st2{fill:#EBEAEA;}
	.st3{fill:#9D9C9A;}
</style>
<title>materiales</title>
<g id="Layer_2">
	<g id="Layer_1-2">
		<g id="Capa_2">
			<circle class="st0" cx="44.8" cy="44.8" r="44.8"/>
		</g>
		<g id="Capa_1">
			<g>
				<defs>
					<circle id="SVGID_1_" cx="44.8" cy="44.8" r="44.8"/>
				</defs>
				<clipPath id="SVGID_2_">
					<use xlink:href="#SVGID_1_"  style="overflow:visible;"/>
				</clipPath>
				<g class="st1">
					<path class="st2" d="M31.8,62.7l32,23.3l16.7-10.7l5.6-12.2l1.8-3l0.5-6.2L62.2,29l-2.8,3.8c0,0-10.1-3.7-17.1-1.1
						c-7.7,2.9-12.2,10.4-12.5,12.9c-0.1,1.3,0.9,3.4,1.1,5.7C31.6,55.2,31.8,62.7,31.8,62.7z"/>
				</g>
			</g>
			<g id="MainObject">
				<path class="st3" d="M39,37.4c3.8-3.7,9.7-4.4,14.2-1.6c-1.5,1.5-3.3,3.2-3.3,3.2c-1.2,1.5,0.1,2.3,0.8,2.3H62
					c0.4,0,0.8-0.3,0.8-0.8c0,0,0,0,0,0l0.1-11.2c0.1-0.7-0.4-1.3-1.1-1.4c-0.4-0.1-0.9,0.1-1.1,0.5c0,0-1.9,1.9-3.3,3.2
					c-6.9-5.1-16.4-4.4-22.5,1.6c-3.5,3.4-5.3,8.1-5.1,13h5.8C35.4,42.9,36.6,39.7,39,37.4z"/>
				<path class="st3" d="M58.2,44.5c0.2,3.3-1,6.6-3.4,8.9c-3.8,3.7-9.7,4.4-14.2,1.6c1.5-1.5,3.3-3.2,3.3-3.2
					c1.2-1.5-0.1-2.3-0.8-2.3H31.8c-0.4,0-0.8,0.3-0.8,0.8c0,0,0,0,0,0l-0.1,11.1c-0.1,0.7,0.4,1.3,1.1,1.4c0.4,0.1,0.9-0.1,1.1-0.5
					c0,0,1.9-1.9,3.3-3.2c6.9,5.1,16.4,4.4,22.5-1.6c3.5-3.4,5.3-8.1,5.1-13L58.2,44.5z"/>
			</g>
		</g>
	</g>
</g>
</svg>
