<svg xmlns="http://www.w3.org/2000/svg" xmlns:xlink="http://www.w3.org/1999/xlink" viewBox="0 0 89.6 89.6"><defs><style>.cls-1{fill:none;}.cls-2{fill:#f4f3f1;}.cls-3{clip-path:url(#clip-path);}.cls-4{fill:#ebeaea;}.cls-5{fill:#9d9c9a;}</style><clipPath id="clip-path"><circle class="cls-1" cx="44.8" cy="44.8" r="44.8"/></clipPath></defs><title>materiales</title><g id="Layer_2" data-name="Layer 2"><g id="Layer_1-2" data-name="Layer 1"><g id="Capa_2" data-name="Capa 2"><circle class="cls-2" cx="44.8" cy="44.8" r="44.8"/></g><g id="Capa_1" data-name="Capa 1"><g class="cls-3"><path class="cls-4" d="M31.8,62.7,63.8,86,80.5,75.3l5.6-12.2,1.8-3,.5-6.2L62.2,29l-2.8,3.8s-10.1-3.7-17.1-1.1c-7.7,2.9-12.2,10.4-12.5,12.9-.1,1.3.9,3.4,1.1,5.7C31.6,55.2,31.8,62.7,31.8,62.7Z"/></g><path class="cls-5" d="M39,37.4a11.67,11.67,0,0,1,14.2-1.6c-1.5,1.5-3.3,3.2-3.3,3.2-1.2,1.5.1,2.3.8,2.3H62a.79.79,0,0,0,.8-.8l.1-11.2a1.23,1.23,0,0,0-2.2-.9s-1.9,1.9-3.3,3.2a17.35,17.35,0,0,0-22.5,1.6,17.09,17.09,0,0,0-5.1,13h5.8A11.35,11.35,0,0,1,39,37.4Z"/><path class="cls-5" d="M58.2,44.5a11.3,11.3,0,0,1-3.4,8.9A11.67,11.67,0,0,1,40.6,55c1.5-1.5,3.3-3.2,3.3-3.2,1.2-1.5-.1-2.3-.8-2.3H31.8a.79.79,0,0,0-.8.8l-.1,11.1a1.23,1.23,0,0,0,2.2.9s1.9-1.9,3.3-3.2a17.35,17.35,0,0,0,22.5-1.6,17.09,17.09,0,0,0,5.1-13Z"/></g></g></g></svg>