<?xml version="1.0" encoding="utf-8"?>
<!-- Generator: Adobe Illustrator 20.1.0, SVG Export Plug-In . SVG Version: 6.00 Build 0)  -->
<svg version="1.1" id="Layer_1" xmlns="http://www.w3.org/2000/svg" xmlns:xlink="http://www.w3.org/1999/xlink" x="0px" y="0px"
	 viewBox="0 0 97 91.1" style="enable-background:new 0 0 97 91.1;" xml:space="preserve">
<style type="text/css">
	.st0{fill:#F4F3F1;}
	.st1{clip-path:url(#SVGID_2_);}
	.st2{fill:#EBEAEA;}
	.st3{fill:#9D9C9A;}
</style>
<title>turismo</title>
<g id="Layer_2">
	<g id="Layer_1-2">
		<g id="Capa_2">
			<circle class="st0" cx="44.8" cy="44.8" r="44.8"/>
		</g>
		<g id="Capa_1">
			<g>
				<defs>
					<circle id="SVGID_1_" cx="44.8" cy="44.8" r="44.8"/>
				</defs>
				<clipPath id="SVGID_2_">
					<use xlink:href="#SVGID_1_"  style="overflow:visible;"/>
				</clipPath>
				<g class="st1">
					<path class="st2" d="M71,91.1L84.6,85l8.2-12.4l1.5-7.4l2.3-4.6l0.4-5.7l-5.9-3.2L50.4,21.3C48.8,23,47,24.6,45,25.9
						c-5.4,3.6-5.5,9.9-6.8,15.4c-0.3,1.4,0,2.2,0.2,4.5c0.1,0.7,0.3,6.2,0.3,9.4c0,4.9-6.5,12-5,13C55.2,82.1,71,91.1,71,91.1z"/>
				</g>
			</g>
			<g id="MainObject">
				<path class="st3" d="M52,68.5c-1.9-0.4-3.5-1.1-4-3.2c-0.1-0.3-0.1-0.5-0.1-0.8v-9c0-0.4-0.2-0.8-0.5-1.1c-1.5-1.5-3-3-4.4-4.5
					c-1.2-1.3-2.3-2.7-3.3-4.1c-0.6-0.9-0.8-2-0.6-3.1c1.1-4.1,2.3-8.1,3.5-12.2c0.6-1.6,2.4-2.4,4-1.8c0,0,0,0,0,0
					c1.2,0.4,2.2,1.3,2.8,2.5c1.2,2.1,2.4,4.1,3.5,6.2c0.5,0.9,1.2,0.8,1.9,0.9c1.2,0.2,2.5,0.3,3.9,0.5c0.2-1.4,0.4-2.7,0.5-4.1
					c0.5,0.1,1,0.2,1.5,0.2l-0.3,2.7c-0.1,1.3-0.1,1.3,1.2,1.7c-0.3,0.6-0.7,1.1-1.1,1.6c-0.5,0.4-0.7,1.1-0.7,1.7
					c-0.1,1.6-0.4,3.1-0.6,4.7s-0.3,3-0.5,4.5s-0.4,3.2-0.6,4.9s-0.3,3.1-0.5,4.7c-0.3,2.2-0.5,4.5-0.8,6.7c0,0.2-0.4,0.5-0.6,0.5
					c-0.4,0.1-0.6-0.2-0.6-0.6c0.1-1.4,0.2-2.8,0.4-4.1s0.3-2.3,0.4-3.5c0.2-1.8,0.4-3.6,0.6-5.3s0.3-3.3,0.5-4.9s0.4-3.2,0.6-4.9
					c0.1-1,0.2-2.1,0.3-3.1c-1.1-0.1-2.3-0.3-3.5-0.4s-2.3-0.3-3.5-0.5c-0.5-0.2-0.9-0.4-1.2-0.8c-0.8-1-1.4-2-2.2-3.2
					c-0.3,1.1-0.6,2-0.9,3c-0.4,1.3-0.6,2.6-1.1,3.8c-0.3,0.8-0.1,1.7,0.6,2.2c1.7,2,3.4,4,5.1,6.1c0.2,0.3,0.3,0.6,0.3,0.9
					C52,53.3,52,68.5,52,68.5z"/>
				<path class="st3" d="M33.4,68.2c-1.9-0.9-2.7-3.3-1.7-5.2c0.1-0.1,0.2-0.3,0.2-0.4c1.3-2.2,2.6-4.3,3.7-6.5
					c0.5-1.2,0.8-2.5,1-3.8c0.5-2.2,1-4.3,1.5-6.4c1.2,1.5,2.4,2.9,3.5,4.3c0.1,0.2,0.2,0.4,0.1,0.6c-0.5,1.8-0.9,3.6-1.5,5.4
					c-0.5,1.2-1.3,2.3-1.9,3.5C36.7,62.5,35.1,65.3,33.4,68.2z"/>
				<path class="st3" d="M37.9,42.9c-0.9-0.3-1.7-0.5-2.5-0.8c-1-0.3-1.6-1.5-1.3-2.5c0-0.1,0-0.1,0.1-0.2c1-3.4,2-6.8,3.1-10.1
					c0.4-1.4,0.9-1.6,2.3-1.3c0.8,0.2,1.5,0.4,2.4,0.7C40.6,33.5,39.2,38.2,37.9,42.9z"/>
				<path class="st3" d="M51.8,24.3c-0.1,2-1.7,3.6-3.7,3.6c-2,0-3.6-1.6-3.6-3.6c0,0,0,0,0,0c0-2,1.6-3.7,3.6-3.7c0,0,0.1,0,0.1,0
					C50.2,20.7,51.8,22.3,51.8,24.3z"/>
			</g>
		</g>
	</g>
</g>
</svg>
