<svg xmlns="http://www.w3.org/2000/svg" xmlns:xlink="http://www.w3.org/1999/xlink" viewBox="0 0 97 91.1"><defs><style>.cls-1{fill:none;}.cls-2{fill:#f4f3f1;}.cls-3{clip-path:url(#clip-path);}.cls-4{fill:#ebeaea;}.cls-5{fill:#9d9c9a;}</style><clipPath id="clip-path"><circle class="cls-1" cx="44.8" cy="44.8" r="44.8"/></clipPath></defs><title>turismo</title><g id="Layer_2" data-name="Layer 2"><g id="Layer_1-2" data-name="Layer 1"><g id="Capa_2" data-name="Capa 2"><circle class="cls-2" cx="44.8" cy="44.8" r="44.8"/></g><g id="Capa_1" data-name="Capa 1"><g class="cls-3"><path class="cls-4" d="M71,91.1,84.6,85l8.2-12.4,1.5-7.4,2.3-4.6.4-5.7-5.9-3.2L50.4,21.3A29.93,29.93,0,0,1,45,25.9c-5.4,3.6-5.5,9.9-6.8,15.4-.3,1.4,0,2.2.2,4.5.1.7.3,6.2.3,9.4,0,4.9-6.5,12-5,13C55.2,82.1,71,91.1,71,91.1Z"/></g><path class="cls-5" d="M52,68.5c-1.9-.4-3.5-1.1-4-3.2a2.49,2.49,0,0,1-.1-.8v-9a1.43,1.43,0,0,0-.5-1.1c-1.5-1.5-3-3-4.4-4.5a42.3,42.3,0,0,1-3.3-4.1,4.28,4.28,0,0,1-.6-3.1c1.1-4.1,2.3-8.1,3.5-12.2a3.1,3.1,0,0,1,4-1.8,4.94,4.94,0,0,1,2.8,2.5c1.2,2.1,2.4,4.1,3.5,6.2.5.9,1.2.8,1.9.9,1.2.2,2.5.3,3.9.5.2-1.4.4-2.7.5-4.1a7.72,7.72,0,0,0,1.5.2l-.3,2.7c-.1,1.3-.1,1.3,1.2,1.7a11.07,11.07,0,0,1-1.1,1.6,2.19,2.19,0,0,0-.7,1.7c-.1,1.6-.4,3.1-.6,4.7s-.3,3-.5,4.5-.4,3.2-.6,4.9-.3,3.1-.5,4.7c-.3,2.2-.5,4.5-.8,6.7,0,.2-.4.5-.6.5-.4.1-.6-.2-.6-.6.1-1.4.2-2.8.4-4.1s.3-2.3.4-3.5c.2-1.8.4-3.6.6-5.3s.3-3.3.5-4.9.4-3.2.6-4.9c.1-1,.2-2.1.3-3.1-1.1-.1-2.3-.3-3.5-.4s-2.3-.3-3.5-.5a3.17,3.17,0,0,1-1.2-.8c-.8-1-1.4-2-2.2-3.2-.3,1.1-.6,2-.9,3-.4,1.3-.6,2.6-1.1,3.8a1.82,1.82,0,0,0,.6,2.2c1.7,2,3.4,4,5.1,6.1a1.4,1.4,0,0,1,.3.9V68.5Z"/><path class="cls-5" d="M33.4,68.2a3.86,3.86,0,0,1-1.5-5.6c1.3-2.2,2.6-4.3,3.7-6.5a17.79,17.79,0,0,0,1-3.8c.5-2.2,1-4.3,1.5-6.4,1.2,1.5,2.4,2.9,3.5,4.3a.61.61,0,0,1,.1.6c-.5,1.8-.9,3.6-1.5,5.4-.5,1.2-1.3,2.3-1.9,3.5C36.7,62.5,35.1,65.3,33.4,68.2Z"/><path class="cls-5" d="M37.9,42.9c-.9-.3-1.7-.5-2.5-.8a2,2,0,0,1-1.2-2.7c1-3.4,2-6.8,3.1-10.1.4-1.4.9-1.6,2.3-1.3.8.2,1.5.4,2.4.7C40.6,33.5,39.2,38.2,37.9,42.9Z"/><path class="cls-5" d="M51.8,24.3a3.73,3.73,0,0,1-3.7,3.6,3.58,3.58,0,0,1-3.6-3.6,3.63,3.63,0,0,1,3.7-3.7A3.74,3.74,0,0,1,51.8,24.3Z"/></g></g></g></svg>