<svg xmlns="http://www.w3.org/2000/svg" viewBox="0 0 50.36 18.75"><defs><style>.cls-1{fill:#fff;}</style></defs><title>commit-logo</title><g id="Layer_2" data-name="Layer 2"><g id="Layer_1-2" data-name="Layer 1"><path class="cls-1" d="M4.57,17.49a2.07,2.07,0,0,1-1.1,1.1,2,2,0,0,1-.8.16h-.6a2,2,0,0,1-.81-.16,2.06,2.06,0,0,1-1.1-1.1,2,2,0,0,1-.16-.8V13.59a2,2,0,0,1,.16-.8,2.06,2.06,0,0,1,1.1-1.1,2,2,0,0,1,.81-.16h.6a2,2,0,0,1,.8.16,2.07,2.07,0,0,1,1.1,1.1,2,2,0,0,1,.16.8V14H4v-.46a1.3,1.3,0,0,0-.11-.52,1.35,1.35,0,0,0-.71-.71,1.31,1.31,0,0,0-.52-.1H2.1a1.3,1.3,0,0,0-.52.1,1.39,1.39,0,0,0-.43.29,1.33,1.33,0,0,0-.29.43,1.31,1.31,0,0,0-.11.52v3.09a1.3,1.3,0,0,0,.11.52,1.37,1.37,0,0,0,.72.72,1.31,1.31,0,0,0,.52.1h.53a1.3,1.3,0,0,0,.52-.1,1.33,1.33,0,0,0,.42-.29,1.39,1.39,0,0,0,.29-.43A1.31,1.31,0,0,0,4,16.68v-.46h.76v.46A2,2,0,0,1,4.57,17.49Z"/><path class="cls-1" d="M10.85,17.49a2.07,2.07,0,0,1-1.1,1.1,2,2,0,0,1-.8.16h-.6a2,2,0,0,1-.81-.16,2.06,2.06,0,0,1-1.1-1.1,2,2,0,0,1-.16-.8V13.59a2,2,0,0,1,.16-.8,2.06,2.06,0,0,1,1.1-1.1,2,2,0,0,1,.81-.16H9a2,2,0,0,1,.8.16,2.07,2.07,0,0,1,1.1,1.1,2,2,0,0,1,.16.8v3.09A2,2,0,0,1,10.85,17.49Zm-.59-3.9a1.3,1.3,0,0,0-.1-.52,1.35,1.35,0,0,0-.71-.71,1.31,1.31,0,0,0-.52-.1H8.39a1.3,1.3,0,0,0-.52.1,1.39,1.39,0,0,0-.43.29,1.33,1.33,0,0,0-.29.43,1.31,1.31,0,0,0-.11.52v3.09a1.3,1.3,0,0,0,.11.52,1.37,1.37,0,0,0,.72.72,1.31,1.31,0,0,0,.52.1h.53a1.3,1.3,0,0,0,.52-.1,1.33,1.33,0,0,0,.43-.29,1.39,1.39,0,0,0,.29-.43,1.31,1.31,0,0,0,.1-.52V13.59Z"/><path class="cls-1" d="M18,18.75V14.14l-2,4.61h-.4l-2-4.61v4.61h-.76V11.5h.39L15.76,17h0l2.54-5.47h.4v7.25Z"/><path class="cls-1" d="M25.84,18.75V14.14l-2,4.61h-.4l-2-4.61v4.61h-.76V11.5h.39L23.61,17h0L26.2,11.5h.4v7.25Z"/><path class="cls-1" d="M28.51,18.75V10.63h.76v8.12Z"/><path class="cls-1" d="M33.23,11.35v7.4h-.76v-7.4h-2v-.72h4.76v.72Z"/><path class="cls-1" d="M35.33,18.75v-.9h.9v.9Z"/><path class="cls-1" d="M43.2,18.75V14.17l-2,4.58h-.4l-2-4.58v4.58H38V11.53h.39L41,17h0l2.54-5.47H44v7.22Z"/><path class="cls-1" d="M49.55,18.73l-1.73-3-1.73,3h-.82L47.41,15l-2-3.49h.81l1.61,2.78,1.6-2.78h.81l-2,3.49,2.14,3.69Z"/><path class="cls-1" d="M30.56,8.25a1.47,1.47,0,0,0-.55.1,1.2,1.2,0,0,0-.7.71,1.5,1.5,0,0,0-.1.54v.13h-.65V9.53A1.48,1.48,0,0,0,28.46,9a1.2,1.2,0,0,0-.27-.4,1.28,1.28,0,0,0-.42-.27,1.44,1.44,0,0,0-.54-.1H25.05a2.17,2.17,0,0,1-.83-.15,1.93,1.93,0,0,1-.65-.43A2,2,0,0,1,23.14,7,2.12,2.12,0,0,1,23,6.18V6.13h.65v.06a1.45,1.45,0,0,0,.1.54,1.26,1.26,0,0,0,.27.43,1.22,1.22,0,0,0,.42.28,1.47,1.47,0,0,0,.55.1h2.17a2.1,2.1,0,0,1,1,.25,1.89,1.89,0,0,1,.72.67,2,2,0,0,1,.72-.66,2.08,2.08,0,0,1,1-.25h2.17a1.45,1.45,0,0,0,.55-.1,1.21,1.21,0,0,0,.7-.7,1.47,1.47,0,0,0,.1-.54V6.13h.65v.06a2.14,2.14,0,0,1-.15.82,2,2,0,0,1-1.08,1.09,2.15,2.15,0,0,1-.83.15Z"/><path class="cls-1" d="M34.15,5.21V1a.29.29,0,0,0-.29-.29H23.93a.29.29,0,0,0-.29.29v4.2H23V.67A.67.67,0,0,1,23.65,0H34.13a.67.67,0,0,1,.67.67V5.21Z"/><polygon class="cls-1" points="29.85 6.25 29.36 5.75 30.95 4.16 29.36 2.57 29.85 2.08 31.94 4.16 29.85 6.25"/><polygon class="cls-1" points="27.93 6.25 25.85 4.16 27.93 2.08 28.43 2.57 26.84 4.16 28.43 5.75 27.93 6.25"/></g></g></svg>