<?xml version="1.0" encoding="utf-8"?>
<!-- Generator: Adobe Illustrator 18.1.1, SVG Export Plug-In . SVG Version: 6.00 Build 0)  -->
<svg version="1.1" id="Layer_1" xmlns="http://www.w3.org/2000/svg" xmlns:xlink="http://www.w3.org/1999/xlink" x="0px" y="0px"
	 width="50.361px" height="18.746px" viewBox="0 0 50.361 18.746" enable-background="new 0 0 50.361 18.746" xml:space="preserve">
<g>
	<g>
		<path fill="#231F20" d="M-53.304,17.487c-0.107,0.25-0.255,0.469-0.442,0.656s-0.406,0.335-0.656,0.442s-0.518,0.161-0.803,0.161
			h-0.598c-0.285,0-0.554-0.054-0.806-0.161s-0.472-0.255-0.659-0.442s-0.335-0.406-0.442-0.656s-0.161-0.518-0.161-0.803V13.59
			c0-0.285,0.054-0.553,0.161-0.803s0.255-0.469,0.442-0.656s0.407-0.335,0.659-0.442s0.521-0.161,0.806-0.161h0.598
			c0.285,0,0.553,0.054,0.803,0.161s0.469,0.255,0.656,0.442s0.335,0.406,0.442,0.656s0.161,0.518,0.161,0.803v0.457h-0.756V13.59
			c0-0.188-0.035-0.362-0.105-0.524s-0.166-0.304-0.287-0.425s-0.263-0.217-0.425-0.287s-0.337-0.105-0.524-0.105h-0.527
			c-0.188,0-0.362,0.035-0.524,0.105s-0.305,0.166-0.428,0.287s-0.22,0.263-0.29,0.425s-0.105,0.337-0.105,0.524v3.094
			c0,0.188,0.035,0.362,0.105,0.524s0.167,0.305,0.29,0.428s0.266,0.22,0.428,0.29s0.337,0.105,0.524,0.105h0.527
			c0.188,0,0.362-0.035,0.524-0.105s0.304-0.167,0.425-0.29s0.217-0.266,0.287-0.428s0.105-0.337,0.105-0.524v-0.457h0.756v0.457
			C-53.143,16.969-53.196,17.237-53.304,17.487z"/>
	</g>
	<g>
		<path fill="#231F20" d="M-47.017,17.487c-0.107,0.25-0.255,0.469-0.442,0.656s-0.406,0.335-0.656,0.442s-0.518,0.161-0.803,0.161
			h-0.598c-0.285,0-0.554-0.054-0.806-0.161s-0.472-0.255-0.659-0.442s-0.335-0.406-0.442-0.656s-0.161-0.518-0.161-0.803V13.59
			c0-0.285,0.054-0.553,0.161-0.803s0.255-0.469,0.442-0.656s0.407-0.335,0.659-0.442s0.521-0.161,0.806-0.161h0.598
			c0.285,0,0.553,0.054,0.803,0.161s0.469,0.255,0.656,0.442s0.335,0.406,0.442,0.656s0.161,0.518,0.161,0.803v3.094
			C-46.856,16.969-46.909,17.237-47.017,17.487z M-47.611,13.59c0-0.188-0.035-0.362-0.105-0.524s-0.166-0.304-0.287-0.425
			s-0.263-0.217-0.425-0.287s-0.337-0.105-0.524-0.105h-0.527c-0.188,0-0.362,0.035-0.524,0.105s-0.305,0.166-0.428,0.287
			s-0.22,0.263-0.29,0.425s-0.105,0.337-0.105,0.524v3.094c0,0.188,0.035,0.362,0.105,0.524s0.167,0.305,0.29,0.428
			s0.266,0.22,0.428,0.29s0.337,0.105,0.524,0.105h0.527c0.188,0,0.362-0.035,0.524-0.105s0.304-0.167,0.425-0.29
			s0.217-0.266,0.287-0.428s0.105-0.337,0.105-0.524V13.59z"/>
	</g>
	<g>
		<path fill="#231F20" d="M-39.877,18.746V14.14l-2.004,4.606h-0.398l-2.016-4.606v4.606h-0.756v-7.249h0.393l2.549,5.474h0.047
			l2.543-5.474h0.398v7.249H-39.877z"/>
	</g>
	<g>
		<path fill="#231F20" d="M-32.031,18.746V14.14l-2.004,4.606h-0.398l-2.016-4.606v4.606h-0.756v-7.249h0.393l2.549,5.474h0.047
			l2.543-5.474h0.398v7.249H-32.031z"/>
	</g>
	<g>
		<path fill="#231F20" d="M-29.359,18.746v-8.121h0.756v8.121H-29.359z"/>
	</g>
	<g>
		<path fill="#231F20" d="M-24.643,11.346v7.4h-0.756v-7.4h-2.004v-0.721h4.764v0.721H-24.643z"/>
	</g>
	<g>
		<path fill="#231F20" d="M-22.545,18.746v-0.902h0.902v0.902H-22.545z"/>
	</g>
	<g>
		<path fill="#231F20" d="M-14.67,18.746V14.17l-2.004,4.576h-0.398l-2.016-4.576v4.576h-0.756v-7.219h0.393l2.549,5.474h0.047
			l2.543-5.474h0.398v7.219H-14.67z"/>
	</g>
	<g>
		<path fill="#231F20" d="M-8.324,18.726l-1.729-2.985l-1.729,2.985h-0.82l2.139-3.691l-2.016-3.491h0.814l1.611,2.78l1.605-2.78
			h0.814l-2.016,3.491l2.139,3.691H-8.324z"/>
	</g>
	<g>
		<path fill="#231F20" d="M-27.312,8.246c-0.203,0-0.388,0.033-0.554,0.1s-0.308,0.159-0.425,0.278s-0.208,0.262-0.272,0.428
			s-0.097,0.347-0.097,0.542v0.129h-0.645V9.53c-0.008-0.188-0.045-0.359-0.111-0.516s-0.158-0.291-0.275-0.404
			s-0.257-0.202-0.419-0.267s-0.343-0.097-0.542-0.097h-2.168c-0.301,0-0.577-0.052-0.829-0.155s-0.47-0.248-0.653-0.434
			s-0.327-0.404-0.431-0.656s-0.155-0.524-0.155-0.817V6.125h0.65v0.059c0,0.195,0.032,0.375,0.097,0.539s0.155,0.306,0.272,0.425
			s0.259,0.212,0.425,0.278s0.349,0.1,0.548,0.1h2.174c0.379,0,0.721,0.083,1.025,0.249s0.543,0.388,0.715,0.665
			c0.18-0.277,0.42-0.499,0.721-0.665s0.641-0.249,1.02-0.249h2.174c0.199,0,0.382-0.033,0.548-0.1s0.308-0.159,0.425-0.278
			s0.208-0.261,0.272-0.425s0.097-0.344,0.097-0.539V6.125h0.65v0.059c0,0.293-0.052,0.565-0.155,0.817s-0.247,0.471-0.431,0.656
			s-0.401,0.33-0.653,0.434s-0.528,0.155-0.829,0.155H-27.312z"/>
	</g>
	<g>
		<path fill="#231F20" d="M-23.726,5.211V1.014c0-0.162-0.131-0.293-0.293-0.293h-9.926c-0.162,0-0.293,0.131-0.293,0.293v4.198
			h-0.65V0.67c0-0.37,0.3-0.67,0.67-0.67h10.473c0.37,0,0.67,0.3,0.67,0.67v4.541H-23.726z"/>
	</g>
	<g>
		<polygon fill="#231F20" points="-28.018,6.245 -28.512,5.75 -26.924,4.161 -28.512,2.572 -28.018,2.077 -25.933,4.161 		"/>
	</g>
	<g>
		<polygon fill="#231F20" points="-29.94,6.245 -32.024,4.161 -29.94,2.077 -29.446,2.572 -31.034,4.161 -29.446,5.75 		"/>
	</g>
</g>
<g>
	<g>
		<path fill="#FFFFFF" d="M4.567,17.487c-0.107,0.25-0.255,0.469-0.442,0.656c-0.187,0.188-0.406,0.335-0.656,0.442
			s-0.518,0.161-0.803,0.161H2.068c-0.285,0-0.554-0.054-0.806-0.161s-0.472-0.255-0.659-0.442s-0.335-0.406-0.442-0.656
			S0,16.969,0,16.684V13.59c0-0.285,0.054-0.553,0.161-0.803s0.255-0.469,0.442-0.656s0.407-0.335,0.659-0.442
			s0.521-0.161,0.806-0.161h0.598c0.285,0,0.553,0.054,0.803,0.161s0.469,0.255,0.656,0.442c0.188,0.188,0.335,0.406,0.442,0.656
			s0.161,0.518,0.161,0.803v0.457H3.973V13.59c0-0.188-0.035-0.362-0.105-0.524s-0.166-0.304-0.287-0.425s-0.263-0.217-0.425-0.287
			s-0.337-0.105-0.524-0.105H2.104c-0.188,0-0.362,0.035-0.524,0.105s-0.305,0.166-0.428,0.287s-0.22,0.263-0.29,0.425
			s-0.105,0.337-0.105,0.524v3.094c0,0.188,0.035,0.362,0.105,0.524s0.167,0.305,0.29,0.428s0.266,0.22,0.428,0.29
			s0.337,0.105,0.524,0.105h0.527c0.188,0,0.362-0.035,0.524-0.105s0.304-0.167,0.425-0.29s0.217-0.266,0.287-0.428
			s0.105-0.337,0.105-0.524v-0.457h0.756v0.457C4.729,16.969,4.675,17.237,4.567,17.487z"/>
	</g>
	<g>
		<path fill="#FFFFFF" d="M10.854,17.487c-0.107,0.25-0.255,0.469-0.442,0.656s-0.406,0.335-0.656,0.442s-0.518,0.161-0.803,0.161
			H8.355c-0.285,0-0.554-0.054-0.806-0.161s-0.472-0.255-0.659-0.442s-0.335-0.406-0.442-0.656s-0.161-0.518-0.161-0.803V13.59
			c0-0.285,0.054-0.553,0.161-0.803s0.255-0.469,0.442-0.656s0.407-0.335,0.659-0.442s0.521-0.161,0.806-0.161h0.598
			c0.285,0,0.553,0.054,0.803,0.161s0.469,0.255,0.656,0.442s0.335,0.406,0.442,0.656s0.161,0.518,0.161,0.803v3.094
			C11.016,16.969,10.962,17.237,10.854,17.487z M10.26,13.59c0-0.188-0.035-0.362-0.105-0.524s-0.166-0.304-0.287-0.425
			s-0.263-0.217-0.425-0.287s-0.337-0.105-0.524-0.105H8.391c-0.188,0-0.362,0.035-0.524,0.105c-0.162,0.07-0.305,0.166-0.428,0.287
			s-0.22,0.263-0.29,0.425s-0.105,0.337-0.105,0.524v3.094c0,0.188,0.035,0.362,0.105,0.524s0.167,0.305,0.29,0.428
			s0.266,0.22,0.428,0.29c0.162,0.07,0.337,0.105,0.524,0.105h0.527c0.188,0,0.362-0.035,0.524-0.105s0.304-0.167,0.425-0.29
			s0.217-0.266,0.287-0.428s0.105-0.337,0.105-0.524V13.59z"/>
	</g>
	<g>
		<path fill="#FFFFFF" d="M17.994,18.746V14.14l-2.004,4.606h-0.398l-2.016-4.606v4.606H12.82v-7.249h0.393l2.549,5.474h0.047
			l2.543-5.474h0.398v7.249H17.994z"/>
	</g>
	<g>
		<path fill="#FFFFFF" d="M25.84,18.746V14.14l-2.004,4.606h-0.398l-2.016-4.606v4.606h-0.756v-7.249h0.393l2.549,5.474h0.047
			l2.543-5.474h0.398v7.249H25.84z"/>
	</g>
	<g>
		<path fill="#FFFFFF" d="M28.512,18.746v-8.121h0.756v8.121H28.512z"/>
	</g>
	<g>
		<path fill="#FFFFFF" d="M33.229,11.346v7.4h-0.756v-7.4h-2.004v-0.721h4.764v0.721H33.229z"/>
	</g>
	<g>
		<path fill="#FFFFFF" d="M35.326,18.746v-0.902h0.902v0.902H35.326z"/>
	</g>
	<g>
		<path fill="#FFFFFF" d="M43.201,18.746V14.17l-2.004,4.576h-0.398l-2.016-4.576v4.576h-0.756v-7.219h0.393l2.549,5.474h0.047
			l2.543-5.474h0.398v7.219H43.201z"/>
	</g>
	<g>
		<path fill="#FFFFFF" d="M49.547,18.726l-1.729-2.985l-1.729,2.985h-0.82l2.139-3.691l-2.016-3.491h0.814l1.611,2.78l1.605-2.78
			h0.814l-2.016,3.491l2.139,3.691H49.547z"/>
	</g>
	<g>
		<path fill="#FFFFFF" d="M30.56,8.246c-0.203,0-0.388,0.033-0.554,0.1s-0.308,0.159-0.425,0.278s-0.208,0.262-0.272,0.428
			s-0.097,0.347-0.097,0.542v0.129h-0.645V9.53c-0.008-0.188-0.045-0.359-0.111-0.516s-0.158-0.291-0.275-0.404
			s-0.257-0.202-0.419-0.267s-0.343-0.097-0.542-0.097h-2.168c-0.301,0-0.577-0.052-0.829-0.155s-0.47-0.248-0.653-0.434
			s-0.327-0.404-0.431-0.656s-0.155-0.524-0.155-0.817V6.125h0.65v0.059c0,0.195,0.032,0.375,0.097,0.539s0.155,0.306,0.272,0.425
			s0.259,0.212,0.425,0.278s0.349,0.1,0.548,0.1h2.174c0.379,0,0.721,0.083,1.025,0.249s0.543,0.388,0.715,0.665
			c0.18-0.277,0.42-0.499,0.721-0.665s0.641-0.249,1.02-0.249h2.174c0.199,0,0.382-0.033,0.548-0.1s0.308-0.159,0.425-0.278
			s0.208-0.261,0.272-0.425s0.097-0.344,0.097-0.539V6.125h0.65v0.059c0,0.293-0.052,0.565-0.155,0.817s-0.247,0.471-0.431,0.656
			s-0.401,0.33-0.653,0.434s-0.528,0.155-0.829,0.155H30.56z"/>
	</g>
	<g>
		<path fill="#FFFFFF" d="M34.146,5.211V1.014c0-0.162-0.131-0.293-0.293-0.293h-9.926c-0.162,0-0.293,0.131-0.293,0.293v4.198
			h-0.65V0.67c0-0.37,0.3-0.67,0.67-0.67h10.473c0.37,0,0.67,0.3,0.67,0.67v4.541H34.146z"/>
	</g>
	<g>
		<polygon fill="#FFFFFF" points="29.853,6.245 29.359,5.75 30.948,4.161 29.359,2.572 29.853,2.077 31.938,4.161 		"/>
	</g>
	<g>
		<polygon fill="#FFFFFF" points="27.931,6.245 25.847,4.161 27.931,2.077 28.425,2.572 26.837,4.161 28.425,5.75 		"/>
	</g>
</g>
</svg>
