<?xml version="1.0" encoding="utf-8"?>
<!-- Generator: Adobe Illustrator 20.1.0, SVG Export Plug-In . SVG Version: 6.00 Build 0)  -->
<svg version="1.1" xmlns="http://www.w3.org/2000/svg" xmlns:xlink="http://www.w3.org/1999/xlink" x="0px" y="0px"
	 viewBox="0 0 132.7 196.7" style="enable-background:new 0 0 132.7 196.7;" xml:space="preserve">
<style type="text/css">
	.st0{display:none;}
	.st1{display:inline;fill:#CC5FA4;}
	.st2{display:inline;fill:#1E233F;}
	.st3{fill:#E6E51F;}
	.st4{fill:#F0F0F0;}
	.st5{fill:#29B573;}
</style>
<g id="fondo" class="st0">
	<rect class="st1" width="132.7" height="196.7"/>
	<rect class="st2" width="132.7" height="196.7"/>
</g>
<g id="logo_frosa">
	<g id="Layer_2_1_">
		<g id="Capa_1_1_">
			<path class="st3" d="M22.4,191.9l1.2,1.1c-2.6,2.4-6,3.8-9.5,3.7c-3.8,0.1-7.4-1.5-10-4.2c-2.7-2.7-4.2-6.3-4.1-10.1
				c-0.1-3.8,1.4-7.4,4.1-10.1c2.6-2.7,6.2-4.2,10-4.2c3.5-0.1,6.9,1.3,9.5,3.7l-1.2,1.1c-2.3-2.1-5.2-3.2-8.3-3.2
				c-3.4-0.1-6.6,1.3-8.9,3.7c-4.9,5-4.9,13,0,18c2.3,2.4,5.5,3.8,8.9,3.7C17.2,195.1,20.1,194,22.4,191.9z"/>
			<path class="st3" d="M51.7,172.1c5.6,5.6,5.6,14.8,0,20.4c-2.6,2.7-6.2,4.2-10,4.2c-3.8,0.1-7.4-1.5-10-4.2
				c-5.6-5.6-5.6-14.8,0-20.4c5.4-5.5,14.3-5.6,19.8-0.2C51.6,172,51.6,172,51.7,172.1z M41.7,169.5c-3.4-0.1-6.6,1.3-8.9,3.7
				c-4.9,5-4.9,13,0,18c2.3,2.4,5.5,3.8,8.9,3.7c3.4,0.1,6.6-1.3,8.9-3.7c4.9-5,4.9-13,0-18C48.2,170.8,45,169.5,41.7,169.5z"/>
			<path class="st3" d="M60.6,196.3v-28h1.6v26.4h10.7v1.6H60.6z"/>
			<path class="st3" d="M78.9,168.3v28h-1.6v-28H78.9z"/>
			<path class="st3" d="M86.2,168.3l10.4,18.2l10.4-18.2h1.8l-0.1,0.1v27.9h-1.6v-25.2l-10.5,18.5l-10.5-18.5v25.2h-1.6v-27.9
				l-0.1-0.1L86.2,168.3z"/>
			<path class="st3" d="M127.3,185.6h-9.6l-3.9,10.7h-1.7l10.3-28.7l10.3,28.7h-1.6L127.3,185.6z M126.7,184l-4.2-11.8l-4.2,11.8
				H126.7z"/>
			<polygon class="st3" points="130.5,105.6 122.8,105.6 110.5,126.1 110.5,104.8 102.8,104.8 102.8,162.9 110.5,162.9 110.5,148.6 
				110.5,141.4 110.5,138.6 122,162.9 130.5,162.9 115.2,131.4 			"/>
			<polygon class="st3" points="21.9,141.4 9.5,141.4 9.5,104.8 1.9,104.8 1.9,162.9 9.5,162.9 9.5,148.6 21.9,148.6 21.9,162.9 
				29.6,162.9 29.6,104.8 21.9,104.8 			"/>
			<path class="st3" d="M57.1,104.8h-20v58.1h7.7v-14.3h12.4v14.3h7.7v-58.1H57.1z M57.1,113.3v28.1H44.7v-28.1H57.1z"/>
			<polygon class="st3" points="72.8,104.8 72,104.8 72,162.9 79.7,162.9 79.9,162.9 96.6,162.9 96.6,154.4 79.9,154.4 79.9,113.3 
				96.6,113.3 96.6,104.8 			"/>
			<path class="st3" d="M103.4,28.8c-0.8-2.5-1.8-5-3.1-7.3l-7.1,4.2c0.4,0.8,0.9,1.7,1.2,2.5c0.9,2.1,1.6,4.3,2.1,6.6
				c1.3,6.3,0.6,12.8-2,18.7c-2.1,5-4.6,10-6.9,14.9s-4.8,9.8-6,15.2c-0.4,1.9-0.6,3.8-0.9,5.7c-0.1,0.5-0.1,1.1-0.1,1.6h-2.7v-58
				h-7.7v36.5H57.8V33h-7.7v58h-2.6c-0.1-1.3-0.2-2.5-0.4-3.8c-0.8-4.9-2.4-9.7-4.6-14.1c-2.7-5.9-5.6-11.7-8.3-17.6
				c-2.3-4.9-3.4-10.4-3.3-15.8c0.2-5.6,1.9-11,4.9-15.7C42.1,13.7,53.5,7.6,65.6,8.2c5,0.2,9.9,1.6,14.3,4.1
				c-1.5,2-3.1,4.2-3.1,4.2c-1.2,2,0.6,2.8,1.4,2.6l9.8-1.5c0.3-0.1,0.6-0.1,0.9-0.1c0.3-0.1,0.7-0.1,1-0.1l1.9-0.3
				c0.5-0.1,0.9-0.6,0.8-1.1L90.5,2.5c-0.1-0.8-0.8-1.5-1.7-1.4c-0.5,0-1,0.4-1.2,0.8c0,0-1.6,2.1-2.9,3.9c-3.5-2-7.2-3.5-11.1-4.5
				c-2.4-0.6-4.8-0.8-7.3-1.3h-5.1l-4.1,0.6C47.4,2.1,38.6,7,32.3,14.5c-5.4,6.2-8.8,13.9-9.7,22.1c-1,8.3,0.9,16.2,4.2,23.7
				c2.7,6,5.6,11.9,8.4,17.8c2.1,4.2,3.3,8.7,3.6,13.4c0.1,4.3,3.7,7.8,8,7.7c0,0,0.1,0,0.1,0h33.2c4.4,0.1,8-3.4,8.1-7.8
				c0,0,0,0,0,0c0.2-3.8,1-7.5,2.6-11c3-6.6,6.2-13.1,9.2-19.7c2-4.1,3.4-8.4,4.2-12.9C105.8,41.5,105.5,34.9,103.4,28.8z
				 M57.8,76.8h12.4V91H57.8L57.8,76.8z"/>
		</g>
	</g>
</g>
<g id="logo">
	<g id="Layer_2">
		<g id="Capa_1">
			<path class="st4" d="M22.4,191.9l1.2,1.1c-2.6,2.4-6,3.8-9.5,3.7c-3.8,0.1-7.4-1.5-10-4.2c-2.7-2.7-4.2-6.3-4.1-10.1
				c-0.1-3.8,1.4-7.4,4.1-10.1c2.6-2.7,6.2-4.2,10-4.2c3.5-0.1,6.9,1.3,9.5,3.7l-1.2,1.1c-2.3-2.1-5.2-3.2-8.3-3.2
				c-3.4-0.1-6.6,1.3-8.9,3.7c-4.9,5-4.9,13,0,18c2.3,2.4,5.5,3.8,8.9,3.7C17.2,195.1,20.1,194,22.4,191.9z"/>
			<path class="st4" d="M51.7,172.1c5.6,5.6,5.6,14.8,0,20.4c-2.6,2.7-6.2,4.2-10,4.2c-3.8,0.1-7.4-1.5-10-4.2
				c-5.6-5.6-5.6-14.8,0-20.4c5.4-5.5,14.3-5.6,19.8-0.2C51.6,172,51.6,172,51.7,172.1z M41.7,169.5c-3.4-0.1-6.6,1.3-8.9,3.7
				c-4.9,5-4.9,13,0,18c2.3,2.4,5.5,3.8,8.9,3.7c3.4,0.1,6.6-1.3,8.9-3.7c4.9-5,4.9-13,0-18C48.2,170.8,45,169.5,41.7,169.5z"/>
			<path class="st4" d="M60.6,196.3v-28h1.6v26.4h10.7v1.6H60.6z"/>
			<path class="st4" d="M78.9,168.3v28h-1.6v-28H78.9z"/>
			<path class="st4" d="M86.2,168.3l10.4,18.2l10.4-18.2h1.8l-0.1,0.1v27.9h-1.6v-25.2l-10.5,18.5l-10.5-18.5v25.2h-1.6v-27.9
				l-0.1-0.1L86.2,168.3z"/>
			<path class="st4" d="M127.3,185.6h-9.6l-3.9,10.7h-1.7l10.3-28.7l10.3,28.7h-1.6L127.3,185.6z M126.7,184l-4.2-11.8l-4.2,11.8
				H126.7z"/>
			<polygon class="st5" points="130.5,105.6 122.8,105.6 110.5,126.1 110.5,104.8 102.8,104.8 102.8,162.9 110.5,162.9 110.5,148.6 
				110.5,141.4 110.5,138.6 122,162.9 130.5,162.9 115.2,131.4 			"/>
			<polygon class="st5" points="21.9,141.4 9.5,141.4 9.5,104.8 1.9,104.8 1.9,162.9 9.5,162.9 9.5,148.6 21.9,148.6 21.9,162.9 
				29.6,162.9 29.6,104.8 21.9,104.8 			"/>
			<path class="st5" d="M57.1,104.8h-20v58.1h7.7v-14.3h12.4v14.3h7.7v-58.1H57.1z M57.1,113.3v28.1H44.7v-28.1H57.1z"/>
			<polygon class="st5" points="72.8,104.8 72,104.8 72,162.9 79.7,162.9 79.9,162.9 96.6,162.9 96.6,154.4 79.9,154.4 79.9,113.3 
				96.6,113.3 96.6,104.8 			"/>
			<path class="st5" d="M103.4,28.8c-0.8-2.5-1.8-5-3.1-7.3l-7.1,4.2c0.4,0.8,0.9,1.7,1.2,2.5c0.9,2.1,1.6,4.3,2.1,6.6
				c1.3,6.3,0.6,12.8-2,18.7c-2.1,5-4.6,10-6.9,14.9s-4.8,9.8-6,15.2c-0.4,1.9-0.6,3.8-0.9,5.7c-0.1,0.5-0.1,1.1-0.1,1.6h-2.7v-58
				h-7.7v36.5H57.8V33h-7.7v58h-2.6c-0.1-1.3-0.2-2.5-0.4-3.8c-0.8-4.9-2.4-9.7-4.6-14.1c-2.7-5.9-5.6-11.7-8.3-17.6
				c-2.3-4.9-3.4-10.4-3.3-15.8c0.2-5.6,1.9-11,4.9-15.7C42.1,13.7,53.5,7.6,65.6,8.2c5,0.2,9.9,1.6,14.3,4.1
				c-1.5,2-3.1,4.2-3.1,4.2c-1.2,2,0.6,2.8,1.4,2.6l9.8-1.5c0.3-0.1,0.6-0.1,0.9-0.1c0.3-0.1,0.7-0.1,1-0.1l1.9-0.3
				c0.5-0.1,0.9-0.6,0.8-1.1L90.5,2.5c-0.1-0.8-0.8-1.5-1.7-1.4c-0.5,0-1,0.4-1.2,0.8c0,0-1.6,2.1-2.9,3.9c-3.5-2-7.2-3.5-11.1-4.5
				c-2.4-0.6-4.8-0.8-7.3-1.3h-5.1l-4.1,0.6C47.4,2.1,38.6,7,32.3,14.5c-5.4,6.2-8.8,13.9-9.7,22.1c-1,8.3,0.9,16.2,4.2,23.7
				c2.7,6,5.6,11.9,8.4,17.8c2.1,4.2,3.3,8.7,3.6,13.4c0.1,4.3,3.7,7.8,8,7.7c0,0,0.1,0,0.1,0h33.2c4.4,0.1,8-3.4,8.1-7.8
				c0,0,0,0,0,0c0.2-3.8,1-7.5,2.6-11c3-6.6,6.2-13.1,9.2-19.7c2-4.1,3.4-8.4,4.2-12.9C105.8,41.5,105.5,34.9,103.4,28.8z
				 M57.8,76.8h12.4V91H57.8L57.8,76.8z"/>
		</g>
	</g>
</g>
</svg>
